<?xml version="1.0" encoding="UTF-8"?>
<svg xmlns="http://www.w3.org/2000/svg" xmlns:xlink="http://www.w3.org/1999/xlink" width="720pt" height="720pt" viewBox="0 0 720 720">
<defs>
<g>
<g id="glyph-0-0">
<path d="M 6.59375 -9.9375 L 6.59375 -9.671875 C 5.957031 -9.609375 5.4375 -9.484375 5.03125 -9.296875 C 4.632812 -9.109375 4.242188 -8.816406 3.859375 -8.421875 C 3.472656 -8.035156 3.148438 -7.601562 2.890625 -7.125 C 2.628906 -6.65625 2.414062 -6.09375 2.25 -5.4375 C 2.9375 -5.90625 3.628906 -6.140625 4.328125 -6.140625 C 4.984375 -6.140625 5.554688 -5.867188 6.046875 -5.328125 C 6.535156 -4.796875 6.78125 -4.113281 6.78125 -3.28125 C 6.78125 -2.457031 6.535156 -1.710938 6.046875 -1.046875 C 5.453125 -0.234375 4.664062 0.171875 3.6875 0.171875 C 3.019531 0.171875 2.457031 -0.046875 2 -0.484375 C 1.082031 -1.335938 0.625 -2.445312 0.625 -3.8125 C 0.625 -4.6875 0.800781 -5.515625 1.15625 -6.296875 C 1.507812 -7.085938 2.007812 -7.785156 2.65625 -8.390625 C 3.300781 -8.992188 3.921875 -9.398438 4.515625 -9.609375 C 5.109375 -9.828125 5.660156 -9.9375 6.171875 -9.9375 Z M 2.125 -4.90625 C 2.039062 -4.257812 2 -3.738281 2 -3.34375 C 2 -2.882812 2.082031 -2.382812 2.25 -1.84375 C 2.414062 -1.3125 2.671875 -0.882812 3.015625 -0.5625 C 3.253906 -0.34375 3.546875 -0.234375 3.890625 -0.234375 C 4.304688 -0.234375 4.675781 -0.425781 5 -0.8125 C 5.332031 -1.207031 5.5 -1.769531 5.5 -2.5 C 5.5 -3.3125 5.335938 -4.015625 5.015625 -4.609375 C 4.691406 -5.210938 4.226562 -5.515625 3.625 -5.515625 C 3.445312 -5.515625 3.253906 -5.476562 3.046875 -5.40625 C 2.835938 -5.332031 2.53125 -5.164062 2.125 -4.90625 Z M 2.125 -4.90625 "/>
</g>
<g id="glyph-0-1">
<path d="M 0.53125 -4.8125 C 0.53125 -5.914062 0.695312 -6.867188 1.03125 -7.671875 C 1.363281 -8.472656 1.8125 -9.070312 2.375 -9.46875 C 2.800781 -9.78125 3.242188 -9.9375 3.703125 -9.9375 C 4.453125 -9.9375 5.125 -9.554688 5.71875 -8.796875 C 6.457031 -7.847656 6.828125 -6.566406 6.828125 -4.953125 C 6.828125 -3.828125 6.660156 -2.867188 6.328125 -2.078125 C 6.003906 -1.285156 5.59375 -0.710938 5.09375 -0.359375 C 4.59375 -0.00390625 4.101562 0.171875 3.625 0.171875 C 2.695312 0.171875 1.925781 -0.375 1.3125 -1.46875 C 0.789062 -2.394531 0.53125 -3.507812 0.53125 -4.8125 Z M 1.9375 -4.625 C 1.9375 -3.289062 2.101562 -2.195312 2.4375 -1.34375 C 2.707031 -0.632812 3.113281 -0.28125 3.65625 -0.28125 C 3.914062 -0.28125 4.179688 -0.394531 4.453125 -0.625 C 4.734375 -0.851562 4.945312 -1.242188 5.09375 -1.796875 C 5.3125 -2.617188 5.421875 -3.78125 5.421875 -5.28125 C 5.421875 -6.382812 5.304688 -7.3125 5.078125 -8.0625 C 4.898438 -8.601562 4.675781 -8.988281 4.40625 -9.21875 C 4.207031 -9.382812 3.972656 -9.46875 3.703125 -9.46875 C 3.367188 -9.46875 3.078125 -9.320312 2.828125 -9.03125 C 2.484375 -8.625 2.25 -7.992188 2.125 -7.140625 C 2 -6.296875 1.9375 -5.457031 1.9375 -4.625 Z M 1.9375 -4.625 "/>
</g>
<g id="glyph-0-2">
<path d="M 2.828125 -4.90625 C 2.054688 -5.53125 1.554688 -6.035156 1.328125 -6.421875 C 1.109375 -6.804688 1 -7.207031 1 -7.625 C 1 -8.25 1.242188 -8.789062 1.734375 -9.25 C 2.222656 -9.707031 2.867188 -9.9375 3.671875 -9.9375 C 4.460938 -9.9375 5.09375 -9.722656 5.5625 -9.296875 C 6.039062 -8.867188 6.28125 -8.382812 6.28125 -7.84375 C 6.28125 -7.476562 6.148438 -7.101562 5.890625 -6.71875 C 5.640625 -6.34375 5.101562 -5.898438 4.28125 -5.390625 C 5.125 -4.742188 5.679688 -4.234375 5.953125 -3.859375 C 6.316406 -3.367188 6.5 -2.851562 6.5 -2.3125 C 6.5 -1.625 6.238281 -1.035156 5.71875 -0.546875 C 5.195312 -0.0664062 4.515625 0.171875 3.671875 0.171875 C 2.742188 0.171875 2.019531 -0.117188 1.5 -0.703125 C 1.09375 -1.160156 0.890625 -1.664062 0.890625 -2.21875 C 0.890625 -2.644531 1.035156 -3.070312 1.328125 -3.5 C 1.617188 -3.925781 2.117188 -4.394531 2.828125 -4.90625 Z M 3.953125 -5.671875 C 4.523438 -6.191406 4.882812 -6.597656 5.03125 -6.890625 C 5.1875 -7.191406 5.265625 -7.53125 5.265625 -7.90625 C 5.265625 -8.414062 5.125 -8.8125 4.84375 -9.09375 C 4.5625 -9.375 4.175781 -9.515625 3.6875 -9.515625 C 3.195312 -9.515625 2.796875 -9.375 2.484375 -9.09375 C 2.179688 -8.8125 2.03125 -8.484375 2.03125 -8.109375 C 2.03125 -7.859375 2.09375 -7.609375 2.21875 -7.359375 C 2.351562 -7.109375 2.535156 -6.867188 2.765625 -6.640625 Z M 3.15625 -4.625 C 2.757812 -4.289062 2.460938 -3.925781 2.265625 -3.53125 C 2.078125 -3.132812 1.984375 -2.707031 1.984375 -2.25 C 1.984375 -1.632812 2.148438 -1.140625 2.484375 -0.765625 C 2.828125 -0.398438 3.257812 -0.21875 3.78125 -0.21875 C 4.300781 -0.21875 4.710938 -0.363281 5.015625 -0.65625 C 5.328125 -0.945312 5.484375 -1.300781 5.484375 -1.71875 C 5.484375 -2.0625 5.394531 -2.367188 5.21875 -2.640625 C 4.875 -3.148438 4.1875 -3.8125 3.15625 -4.625 Z M 3.15625 -4.625 "/>
</g>
<g id="glyph-0-3">
<path d="M 1.484375 -9.734375 L 6.703125 -9.734375 L 6.703125 -9.46875 L 3.453125 0.203125 L 2.65625 0.203125 L 5.5625 -8.5625 L 2.875 -8.5625 C 2.332031 -8.5625 1.945312 -8.5 1.71875 -8.375 C 1.320312 -8.15625 1 -7.816406 0.75 -7.359375 L 0.546875 -7.4375 Z M 1.484375 -9.734375 "/>
</g>
<g id="glyph-0-4">
<path d="M 6.734375 -1.875 L 6.0625 0 L 0.3125 0 L 0.3125 -0.265625 C 2 -1.804688 3.1875 -3.0625 3.875 -4.03125 C 4.570312 -5.007812 4.921875 -5.90625 4.921875 -6.71875 C 4.921875 -7.332031 4.726562 -7.835938 4.34375 -8.234375 C 3.96875 -8.640625 3.519531 -8.84375 3 -8.84375 C 2.519531 -8.84375 2.085938 -8.703125 1.703125 -8.421875 C 1.328125 -8.140625 1.046875 -7.726562 0.859375 -7.1875 L 0.59375 -7.1875 C 0.71875 -8.070312 1.023438 -8.75 1.515625 -9.21875 C 2.015625 -9.695312 2.632812 -9.9375 3.375 -9.9375 C 4.164062 -9.9375 4.820312 -9.679688 5.34375 -9.171875 C 5.875 -8.671875 6.140625 -8.070312 6.140625 -7.375 C 6.140625 -6.882812 6.023438 -6.394531 5.796875 -5.90625 C 5.441406 -5.125 4.867188 -4.300781 4.078125 -3.4375 C 2.890625 -2.132812 2.144531 -1.347656 1.84375 -1.078125 L 4.390625 -1.078125 C 4.898438 -1.078125 5.257812 -1.097656 5.46875 -1.140625 C 5.675781 -1.179688 5.863281 -1.257812 6.03125 -1.375 C 6.195312 -1.488281 6.34375 -1.65625 6.46875 -1.875 Z M 6.734375 -1.875 "/>
</g>
<g id="glyph-0-5">
<path d="M 6.84375 -3.59375 L 6.84375 -2.5625 L 5.53125 -2.5625 L 5.53125 0 L 4.34375 0 L 4.34375 -2.5625 L 0.234375 -2.5625 L 0.234375 -3.484375 L 4.75 -9.9375 L 5.53125 -9.9375 L 5.53125 -3.59375 Z M 4.34375 -3.59375 L 4.34375 -8.421875 L 0.9375 -3.59375 Z M 4.34375 -3.59375 "/>
</g>
<g id="glyph-0-6">
<path d="M 6.375 -9.734375 L 5.828125 -8.515625 L 2.890625 -8.515625 L 2.25 -7.203125 C 3.519531 -7.015625 4.523438 -6.546875 5.265625 -5.796875 C 5.898438 -5.140625 6.21875 -4.375 6.21875 -3.5 C 6.21875 -2.988281 6.113281 -2.515625 5.90625 -2.078125 C 5.695312 -1.640625 5.4375 -1.265625 5.125 -0.953125 C 4.8125 -0.648438 4.460938 -0.40625 4.078125 -0.21875 C 3.523438 0.0390625 2.957031 0.171875 2.375 0.171875 C 1.789062 0.171875 1.363281 0.0703125 1.09375 -0.125 C 0.832031 -0.320312 0.703125 -0.539062 0.703125 -0.78125 C 0.703125 -0.914062 0.753906 -1.035156 0.859375 -1.140625 C 0.972656 -1.242188 1.113281 -1.296875 1.28125 -1.296875 C 1.40625 -1.296875 1.515625 -1.273438 1.609375 -1.234375 C 1.703125 -1.191406 1.863281 -1.09375 2.09375 -0.9375 C 2.445312 -0.6875 2.8125 -0.5625 3.1875 -0.5625 C 3.738281 -0.5625 4.226562 -0.773438 4.65625 -1.203125 C 5.082031 -1.628906 5.296875 -2.144531 5.296875 -2.75 C 5.296875 -3.332031 5.101562 -3.878906 4.71875 -4.390625 C 4.34375 -4.898438 3.820312 -5.296875 3.15625 -5.578125 C 2.632812 -5.796875 1.925781 -5.921875 1.03125 -5.953125 L 2.890625 -9.734375 Z M 6.375 -9.734375 "/>
</g>
<g id="glyph-0-7">
<path d="M -0.1875 -9.734375 L 2.453125 -9.734375 L 8.40625 -2.4375 L 8.40625 -8.046875 C 8.40625 -8.648438 8.335938 -9.023438 8.203125 -9.171875 C 8.023438 -9.367188 7.742188 -9.46875 7.359375 -9.46875 L 7.015625 -9.46875 L 7.015625 -9.734375 L 10.40625 -9.734375 L 10.40625 -9.46875 L 10.0625 -9.46875 C 9.65625 -9.46875 9.363281 -9.34375 9.1875 -9.09375 C 9.082031 -8.9375 9.03125 -8.585938 9.03125 -8.046875 L 9.03125 0.15625 L 8.765625 0.15625 L 2.359375 -7.6875 L 2.359375 -1.6875 C 2.359375 -1.09375 2.421875 -0.71875 2.546875 -0.5625 C 2.734375 -0.363281 3.015625 -0.265625 3.390625 -0.265625 L 3.734375 -0.265625 L 3.734375 0 L 0.34375 0 L 0.34375 -0.265625 L 0.6875 -0.265625 C 1.101562 -0.265625 1.394531 -0.390625 1.5625 -0.640625 C 1.664062 -0.796875 1.71875 -1.144531 1.71875 -1.6875 L 1.71875 -8.453125 C 1.4375 -8.785156 1.222656 -9.003906 1.078125 -9.109375 C 0.929688 -9.210938 0.71875 -9.3125 0.4375 -9.40625 C 0.300781 -9.445312 0.09375 -9.46875 -0.1875 -9.46875 Z M -0.1875 -9.734375 "/>
</g>
<g id="glyph-0-8">
<path d="M 1.5625 -4.09375 C 1.5625 -3.125 1.800781 -2.359375 2.28125 -1.796875 C 2.757812 -1.242188 3.320312 -0.96875 3.96875 -0.96875 C 4.394531 -0.96875 4.765625 -1.085938 5.078125 -1.328125 C 5.398438 -1.566406 5.671875 -1.972656 5.890625 -2.546875 L 6.109375 -2.390625 C 6.003906 -1.742188 5.710938 -1.148438 5.234375 -0.609375 C 4.753906 -0.0664062 4.148438 0.203125 3.421875 0.203125 C 2.628906 0.203125 1.953125 -0.101562 1.390625 -0.71875 C 0.828125 -1.332031 0.546875 -2.160156 0.546875 -3.203125 C 0.546875 -4.328125 0.832031 -5.203125 1.40625 -5.828125 C 1.988281 -6.460938 2.710938 -6.78125 3.578125 -6.78125 C 4.316406 -6.78125 4.921875 -6.535156 5.390625 -6.046875 C 5.867188 -5.554688 6.109375 -4.90625 6.109375 -4.09375 Z M 1.5625 -4.515625 L 4.609375 -4.515625 C 4.585938 -4.929688 4.535156 -5.226562 4.453125 -5.40625 C 4.335938 -5.675781 4.160156 -5.882812 3.921875 -6.03125 C 3.679688 -6.1875 3.4375 -6.265625 3.1875 -6.265625 C 2.78125 -6.265625 2.421875 -6.109375 2.109375 -5.796875 C 1.796875 -5.492188 1.613281 -5.066406 1.5625 -4.515625 Z M 1.5625 -4.515625 "/>
</g>
<g id="glyph-0-9">
<path d="M 2.21875 -2.390625 C 1.8125 -2.585938 1.5 -2.863281 1.28125 -3.21875 C 1.070312 -3.570312 0.96875 -3.960938 0.96875 -4.390625 C 0.96875 -5.035156 1.210938 -5.59375 1.703125 -6.0625 C 2.191406 -6.53125 2.820312 -6.765625 3.59375 -6.765625 C 4.21875 -6.765625 4.757812 -6.613281 5.21875 -6.3125 L 6.609375 -6.3125 C 6.816406 -6.3125 6.9375 -6.304688 6.96875 -6.296875 C 7 -6.285156 7.023438 -6.265625 7.046875 -6.234375 C 7.066406 -6.191406 7.078125 -6.113281 7.078125 -6 C 7.078125 -5.875 7.066406 -5.789062 7.046875 -5.75 C 7.035156 -5.71875 7.007812 -5.695312 6.96875 -5.6875 C 6.9375 -5.675781 6.816406 -5.671875 6.609375 -5.671875 L 5.75 -5.671875 C 6.019531 -5.316406 6.15625 -4.875 6.15625 -4.34375 C 6.15625 -3.726562 5.921875 -3.203125 5.453125 -2.765625 C 4.984375 -2.335938 4.351562 -2.125 3.5625 -2.125 C 3.238281 -2.125 2.90625 -2.171875 2.5625 -2.265625 C 2.351562 -2.078125 2.210938 -1.914062 2.140625 -1.78125 C 2.066406 -1.644531 2.03125 -1.53125 2.03125 -1.4375 C 2.03125 -1.351562 2.066406 -1.269531 2.140625 -1.1875 C 2.222656 -1.113281 2.378906 -1.0625 2.609375 -1.03125 C 2.742188 -1.007812 3.082031 -0.992188 3.625 -0.984375 C 4.601562 -0.960938 5.238281 -0.929688 5.53125 -0.890625 C 5.976562 -0.828125 6.332031 -0.660156 6.59375 -0.390625 C 6.863281 -0.117188 7 0.210938 7 0.609375 C 7 1.148438 6.742188 1.65625 6.234375 2.125 C 5.492188 2.820312 4.519531 3.171875 3.3125 3.171875 C 2.394531 3.171875 1.613281 2.960938 0.96875 2.546875 C 0.613281 2.304688 0.4375 2.054688 0.4375 1.796875 C 0.4375 1.679688 0.460938 1.566406 0.515625 1.453125 C 0.597656 1.273438 0.765625 1.03125 1.015625 0.71875 C 1.046875 0.675781 1.289062 0.414062 1.75 -0.0625 C 1.5 -0.207031 1.320312 -0.335938 1.21875 -0.453125 C 1.113281 -0.566406 1.0625 -0.703125 1.0625 -0.859375 C 1.0625 -1.023438 1.128906 -1.21875 1.265625 -1.4375 C 1.410156 -1.664062 1.726562 -1.984375 2.21875 -2.390625 Z M 3.46875 -6.421875 C 3.113281 -6.421875 2.816406 -6.28125 2.578125 -6 C 2.335938 -5.71875 2.21875 -5.285156 2.21875 -4.703125 C 2.21875 -3.941406 2.378906 -3.351562 2.703125 -2.9375 C 2.953125 -2.625 3.269531 -2.46875 3.65625 -2.46875 C 4.019531 -2.46875 4.316406 -2.601562 4.546875 -2.875 C 4.785156 -3.144531 4.90625 -3.570312 4.90625 -4.15625 C 4.90625 -4.925781 4.738281 -5.523438 4.40625 -5.953125 C 4.164062 -6.265625 3.851562 -6.421875 3.46875 -6.421875 Z M 2.140625 0 C 1.921875 0.238281 1.753906 0.460938 1.640625 0.671875 C 1.523438 0.890625 1.46875 1.085938 1.46875 1.265625 C 1.46875 1.492188 1.601562 1.691406 1.875 1.859375 C 2.351562 2.160156 3.046875 2.3125 3.953125 2.3125 C 4.816406 2.3125 5.453125 2.160156 5.859375 1.859375 C 6.265625 1.554688 6.46875 1.234375 6.46875 0.890625 C 6.46875 0.640625 6.347656 0.460938 6.109375 0.359375 C 5.859375 0.242188 5.363281 0.179688 4.625 0.171875 C 3.550781 0.140625 2.722656 0.0820312 2.140625 0 Z M 2.140625 0 "/>
</g>
<g id="glyph-0-10">
<path d="M 4.1875 -0.953125 C 3.507812 -0.429688 3.085938 -0.128906 2.921875 -0.046875 C 2.660156 0.078125 2.382812 0.140625 2.09375 0.140625 C 1.632812 0.140625 1.257812 -0.015625 0.96875 -0.328125 C 0.675781 -0.640625 0.53125 -1.050781 0.53125 -1.5625 C 0.53125 -1.875 0.597656 -2.148438 0.734375 -2.390625 C 0.929688 -2.710938 1.269531 -3.015625 1.75 -3.296875 C 2.238281 -3.585938 3.050781 -3.941406 4.1875 -4.359375 L 4.1875 -4.609375 C 4.1875 -5.265625 4.082031 -5.710938 3.875 -5.953125 C 3.664062 -6.203125 3.363281 -6.328125 2.96875 -6.328125 C 2.664062 -6.328125 2.425781 -6.25 2.25 -6.09375 C 2.0625 -5.925781 1.96875 -5.738281 1.96875 -5.53125 L 1.984375 -5.109375 C 1.984375 -4.890625 1.925781 -4.71875 1.8125 -4.59375 C 1.707031 -4.476562 1.5625 -4.421875 1.375 -4.421875 C 1.195312 -4.421875 1.050781 -4.484375 0.9375 -4.609375 C 0.832031 -4.734375 0.78125 -4.90625 0.78125 -5.125 C 0.78125 -5.53125 0.988281 -5.90625 1.40625 -6.25 C 1.820312 -6.59375 2.414062 -6.765625 3.1875 -6.765625 C 3.769531 -6.765625 4.242188 -6.664062 4.609375 -6.46875 C 4.898438 -6.320312 5.109375 -6.09375 5.234375 -5.78125 C 5.328125 -5.570312 5.375 -5.148438 5.375 -4.515625 L 5.375 -2.28125 C 5.375 -1.65625 5.382812 -1.269531 5.40625 -1.125 C 5.425781 -0.988281 5.460938 -0.894531 5.515625 -0.84375 C 5.578125 -0.800781 5.644531 -0.78125 5.71875 -0.78125 C 5.789062 -0.78125 5.859375 -0.796875 5.921875 -0.828125 C 6.015625 -0.890625 6.207031 -1.0625 6.5 -1.34375 L 6.5 -0.953125 C 5.957031 -0.234375 5.441406 0.125 4.953125 0.125 C 4.722656 0.125 4.535156 0.046875 4.390625 -0.109375 C 4.253906 -0.273438 4.1875 -0.554688 4.1875 -0.953125 Z M 4.1875 -1.421875 L 4.1875 -3.921875 C 3.457031 -3.628906 2.988281 -3.425781 2.78125 -3.3125 C 2.40625 -3.101562 2.132812 -2.878906 1.96875 -2.640625 C 1.8125 -2.410156 1.734375 -2.160156 1.734375 -1.890625 C 1.734375 -1.546875 1.832031 -1.257812 2.03125 -1.03125 C 2.238281 -0.8125 2.476562 -0.703125 2.75 -0.703125 C 3.113281 -0.703125 3.59375 -0.941406 4.1875 -1.421875 Z M 4.1875 -1.421875 "/>
</g>
<g id="glyph-0-11">
<path d="M 2.375 -8.734375 L 2.375 -6.578125 L 3.90625 -6.578125 L 3.90625 -6.078125 L 2.375 -6.078125 L 2.375 -1.8125 C 2.375 -1.382812 2.429688 -1.09375 2.546875 -0.9375 C 2.671875 -0.789062 2.828125 -0.71875 3.015625 -0.71875 C 3.179688 -0.71875 3.335938 -0.765625 3.484375 -0.859375 C 3.628906 -0.960938 3.742188 -1.113281 3.828125 -1.3125 L 4.109375 -1.3125 C 3.941406 -0.84375 3.703125 -0.488281 3.390625 -0.25 C 3.085938 -0.0078125 2.773438 0.109375 2.453125 0.109375 C 2.234375 0.109375 2.015625 0.046875 1.796875 -0.078125 C 1.585938 -0.203125 1.429688 -0.375 1.328125 -0.59375 C 1.234375 -0.820312 1.1875 -1.175781 1.1875 -1.65625 L 1.1875 -6.078125 L 0.140625 -6.078125 L 0.140625 -6.3125 C 0.398438 -6.414062 0.664062 -6.59375 0.9375 -6.84375 C 1.21875 -7.09375 1.46875 -7.390625 1.6875 -7.734375 C 1.800781 -7.921875 1.953125 -8.253906 2.140625 -8.734375 Z M 2.375 -8.734375 "/>
</g>
<g id="glyph-0-12">
<path d="M 5.109375 -0.734375 C 4.785156 -0.398438 4.46875 -0.160156 4.15625 -0.015625 C 3.851562 0.128906 3.523438 0.203125 3.171875 0.203125 C 2.453125 0.203125 1.820312 -0.09375 1.28125 -0.6875 C 0.75 -1.289062 0.484375 -2.066406 0.484375 -3.015625 C 0.484375 -3.953125 0.78125 -4.8125 1.375 -5.59375 C 1.96875 -6.382812 2.734375 -6.78125 3.671875 -6.78125 C 4.242188 -6.78125 4.722656 -6.59375 5.109375 -6.21875 L 5.109375 -7.4375 C 5.109375 -8.1875 5.085938 -8.644531 5.046875 -8.8125 C 5.015625 -8.988281 4.957031 -9.109375 4.875 -9.171875 C 4.800781 -9.234375 4.707031 -9.265625 4.59375 -9.265625 C 4.46875 -9.265625 4.300781 -9.226562 4.09375 -9.15625 L 4 -9.40625 L 5.96875 -10.203125 L 6.28125 -10.203125 L 6.28125 -2.609375 C 6.28125 -1.835938 6.296875 -1.363281 6.328125 -1.1875 C 6.367188 -1.019531 6.429688 -0.898438 6.515625 -0.828125 C 6.597656 -0.765625 6.691406 -0.734375 6.796875 -0.734375 C 6.921875 -0.734375 7.09375 -0.773438 7.3125 -0.859375 L 7.390625 -0.609375 L 5.4375 0.203125 L 5.109375 0.203125 Z M 5.109375 -1.234375 L 5.109375 -4.625 C 5.078125 -4.957031 4.988281 -5.253906 4.84375 -5.515625 C 4.695312 -5.785156 4.503906 -5.988281 4.265625 -6.125 C 4.035156 -6.257812 3.804688 -6.328125 3.578125 -6.328125 C 3.160156 -6.328125 2.785156 -6.140625 2.453125 -5.765625 C 2.015625 -5.265625 1.796875 -4.535156 1.796875 -3.578125 C 1.796875 -2.609375 2.003906 -1.867188 2.421875 -1.359375 C 2.847656 -0.847656 3.320312 -0.59375 3.84375 -0.59375 C 4.28125 -0.59375 4.703125 -0.804688 5.109375 -1.234375 Z M 5.109375 -1.234375 "/>
</g>
<g id="glyph-0-13">
</g>
<g id="glyph-0-14">
<path d="M 3.078125 -9.203125 L 3.078125 -5.359375 L 5.21875 -5.359375 C 5.769531 -5.359375 6.140625 -5.441406 6.328125 -5.609375 C 6.578125 -5.828125 6.710938 -6.210938 6.734375 -6.765625 L 7 -6.765625 L 7 -3.375 L 6.734375 -3.375 C 6.671875 -3.851562 6.609375 -4.160156 6.546875 -4.296875 C 6.453125 -4.460938 6.304688 -4.59375 6.109375 -4.6875 C 5.921875 -4.78125 5.625 -4.828125 5.21875 -4.828125 L 3.078125 -4.828125 L 3.078125 -1.625 C 3.078125 -1.1875 3.09375 -0.921875 3.125 -0.828125 C 3.164062 -0.742188 3.234375 -0.671875 3.328125 -0.609375 C 3.421875 -0.554688 3.601562 -0.53125 3.875 -0.53125 L 5.53125 -0.53125 C 6.082031 -0.53125 6.476562 -0.566406 6.71875 -0.640625 C 6.96875 -0.722656 7.207031 -0.875 7.4375 -1.09375 C 7.738281 -1.394531 8.046875 -1.84375 8.359375 -2.4375 L 8.640625 -2.4375 L 7.796875 0 L 0.296875 0 L 0.296875 -0.265625 L 0.640625 -0.265625 C 0.867188 -0.265625 1.085938 -0.320312 1.296875 -0.4375 C 1.453125 -0.507812 1.554688 -0.617188 1.609375 -0.765625 C 1.660156 -0.921875 1.6875 -1.238281 1.6875 -1.71875 L 1.6875 -8.046875 C 1.6875 -8.660156 1.625 -9.039062 1.5 -9.1875 C 1.332031 -9.375 1.046875 -9.46875 0.640625 -9.46875 L 0.296875 -9.46875 L 0.296875 -9.734375 L 7.796875 -9.734375 L 7.90625 -7.609375 L 7.625 -7.609375 C 7.53125 -8.117188 7.421875 -8.46875 7.296875 -8.65625 C 7.171875 -8.851562 6.988281 -9 6.75 -9.09375 C 6.5625 -9.164062 6.226562 -9.203125 5.75 -9.203125 Z M 3.078125 -9.203125 "/>
</g>
<g id="glyph-0-15">
<path d="M 2.375 -5.375 C 3.144531 -6.300781 3.878906 -6.765625 4.578125 -6.765625 C 4.941406 -6.765625 5.25 -6.675781 5.5 -6.5 C 5.757812 -6.320312 5.96875 -6.023438 6.125 -5.609375 C 6.226562 -5.328125 6.28125 -4.890625 6.28125 -4.296875 L 6.28125 -1.484375 C 6.28125 -1.066406 6.3125 -0.785156 6.375 -0.640625 C 6.4375 -0.515625 6.523438 -0.421875 6.640625 -0.359375 C 6.753906 -0.296875 6.96875 -0.265625 7.28125 -0.265625 L 7.28125 0 L 4.03125 0 L 4.03125 -0.265625 L 4.171875 -0.265625 C 4.472656 -0.265625 4.6875 -0.304688 4.8125 -0.390625 C 4.9375 -0.484375 5.019531 -0.625 5.0625 -0.8125 C 5.082031 -0.882812 5.09375 -1.109375 5.09375 -1.484375 L 5.09375 -4.171875 C 5.09375 -4.773438 5.015625 -5.210938 4.859375 -5.484375 C 4.703125 -5.753906 4.441406 -5.890625 4.078125 -5.890625 C 3.503906 -5.890625 2.9375 -5.578125 2.375 -4.953125 L 2.375 -1.484375 C 2.375 -1.035156 2.398438 -0.757812 2.453125 -0.65625 C 2.523438 -0.519531 2.617188 -0.421875 2.734375 -0.359375 C 2.847656 -0.296875 3.085938 -0.265625 3.453125 -0.265625 L 3.453125 0 L 0.1875 0 L 0.1875 -0.265625 L 0.34375 -0.265625 C 0.675781 -0.265625 0.898438 -0.347656 1.015625 -0.515625 C 1.128906 -0.679688 1.1875 -1.003906 1.1875 -1.484375 L 1.1875 -3.921875 C 1.1875 -4.710938 1.164062 -5.191406 1.125 -5.359375 C 1.09375 -5.535156 1.039062 -5.65625 0.96875 -5.71875 C 0.894531 -5.78125 0.796875 -5.8125 0.671875 -5.8125 C 0.535156 -5.8125 0.375 -5.773438 0.1875 -5.703125 L 0.09375 -5.96875 L 2.0625 -6.765625 L 2.375 -6.765625 Z M 2.375 -5.375 "/>
</g>
<g id="glyph-0-16">
<path d="M 2.125 -10.203125 C 2.332031 -10.203125 2.503906 -10.128906 2.640625 -9.984375 C 2.785156 -9.847656 2.859375 -9.679688 2.859375 -9.484375 C 2.859375 -9.285156 2.785156 -9.113281 2.640625 -8.96875 C 2.503906 -8.820312 2.332031 -8.75 2.125 -8.75 C 1.925781 -8.75 1.753906 -8.820312 1.609375 -8.96875 C 1.472656 -9.113281 1.40625 -9.285156 1.40625 -9.484375 C 1.40625 -9.679688 1.472656 -9.847656 1.609375 -9.984375 C 1.753906 -10.128906 1.925781 -10.203125 2.125 -10.203125 Z M 2.734375 -6.765625 L 2.734375 -1.484375 C 2.734375 -1.078125 2.757812 -0.800781 2.8125 -0.65625 C 2.875 -0.519531 2.960938 -0.421875 3.078125 -0.359375 C 3.203125 -0.296875 3.414062 -0.265625 3.71875 -0.265625 L 3.71875 0 L 0.53125 0 L 0.53125 -0.265625 C 0.851562 -0.265625 1.066406 -0.289062 1.171875 -0.34375 C 1.285156 -0.40625 1.375 -0.507812 1.4375 -0.65625 C 1.5 -0.800781 1.53125 -1.078125 1.53125 -1.484375 L 1.53125 -4.015625 C 1.53125 -4.734375 1.507812 -5.195312 1.46875 -5.40625 C 1.4375 -5.5625 1.382812 -5.664062 1.3125 -5.71875 C 1.238281 -5.78125 1.140625 -5.8125 1.015625 -5.8125 C 0.878906 -5.8125 0.71875 -5.773438 0.53125 -5.703125 L 0.4375 -5.96875 L 2.40625 -6.765625 Z M 2.734375 -6.765625 "/>
</g>
<g id="glyph-0-17">
<path d="M 0.09375 -6.578125 L 3.15625 -6.578125 L 3.15625 -6.3125 L 3 -6.3125 C 2.78125 -6.3125 2.617188 -6.265625 2.515625 -6.171875 C 2.410156 -6.078125 2.359375 -5.960938 2.359375 -5.828125 C 2.359375 -5.640625 2.4375 -5.378906 2.59375 -5.046875 L 4.1875 -1.734375 L 5.671875 -5.359375 C 5.742188 -5.554688 5.78125 -5.75 5.78125 -5.9375 C 5.78125 -6.03125 5.765625 -6.097656 5.734375 -6.140625 C 5.691406 -6.191406 5.628906 -6.234375 5.546875 -6.265625 C 5.472656 -6.296875 5.332031 -6.3125 5.125 -6.3125 L 5.125 -6.578125 L 7.265625 -6.578125 L 7.265625 -6.3125 C 7.085938 -6.289062 6.953125 -6.25 6.859375 -6.1875 C 6.765625 -6.132812 6.660156 -6.03125 6.546875 -5.875 C 6.492188 -5.800781 6.410156 -5.613281 6.296875 -5.3125 L 3.625 1.234375 C 3.363281 1.878906 3.019531 2.363281 2.59375 2.6875 C 2.175781 3.007812 1.773438 3.171875 1.390625 3.171875 C 1.109375 3.171875 0.875 3.085938 0.6875 2.921875 C 0.507812 2.765625 0.421875 2.582031 0.421875 2.375 C 0.421875 2.164062 0.484375 2 0.609375 1.875 C 0.742188 1.757812 0.925781 1.703125 1.15625 1.703125 C 1.320312 1.703125 1.539062 1.753906 1.8125 1.859375 C 2 1.929688 2.117188 1.96875 2.171875 1.96875 C 2.316406 1.96875 2.472656 1.890625 2.640625 1.734375 C 2.804688 1.585938 2.976562 1.304688 3.15625 0.890625 L 3.625 -0.265625 L 1.25 -5.21875 C 1.1875 -5.363281 1.070312 -5.546875 0.90625 -5.765625 C 0.789062 -5.929688 0.695312 -6.046875 0.625 -6.109375 C 0.507812 -6.179688 0.332031 -6.25 0.09375 -6.3125 Z M 0.09375 -6.578125 "/>
</g>
<g id="glyph-0-18">
<path d="M 7.015625 -9.46875 L 7.015625 -9.734375 L 10.453125 -9.734375 L 10.453125 -9.46875 L 10.09375 -9.46875 C 9.707031 -9.46875 9.414062 -9.304688 9.21875 -8.984375 C 9.113281 -8.835938 9.0625 -8.492188 9.0625 -7.953125 L 9.0625 -4 C 9.0625 -3.03125 8.960938 -2.273438 8.765625 -1.734375 C 8.578125 -1.191406 8.195312 -0.726562 7.625 -0.34375 C 7.0625 0.0390625 6.289062 0.234375 5.3125 0.234375 C 4.25 0.234375 3.441406 0.0507812 2.890625 -0.3125 C 2.335938 -0.6875 1.945312 -1.1875 1.71875 -1.8125 C 1.570312 -2.238281 1.5 -3.035156 1.5 -4.203125 L 1.5 -8.015625 C 1.5 -8.609375 1.414062 -9 1.25 -9.1875 C 1.082031 -9.375 0.8125 -9.46875 0.4375 -9.46875 L 0.078125 -9.46875 L 0.078125 -9.734375 L 4.28125 -9.734375 L 4.28125 -9.46875 L 3.90625 -9.46875 C 3.507812 -9.46875 3.222656 -9.34375 3.046875 -9.09375 C 2.929688 -8.914062 2.875 -8.554688 2.875 -8.015625 L 2.875 -3.765625 C 2.875 -3.390625 2.90625 -2.957031 2.96875 -2.46875 C 3.039062 -1.976562 3.164062 -1.597656 3.34375 -1.328125 C 3.53125 -1.054688 3.796875 -0.832031 4.140625 -0.65625 C 4.484375 -0.476562 4.90625 -0.390625 5.40625 -0.390625 C 6.039062 -0.390625 6.609375 -0.523438 7.109375 -0.796875 C 7.609375 -1.078125 7.953125 -1.429688 8.140625 -1.859375 C 8.328125 -2.296875 8.421875 -3.035156 8.421875 -4.078125 L 8.421875 -8.015625 C 8.421875 -8.617188 8.351562 -9 8.21875 -9.15625 C 8.03125 -9.363281 7.75 -9.46875 7.375 -9.46875 Z M 7.015625 -9.46875 "/>
</g>
<g id="glyph-0-19">
<path d="M 2.390625 -6.765625 L 2.390625 -5.296875 C 2.929688 -6.273438 3.492188 -6.765625 4.078125 -6.765625 C 4.335938 -6.765625 4.550781 -6.679688 4.71875 -6.515625 C 4.894531 -6.359375 4.984375 -6.175781 4.984375 -5.96875 C 4.984375 -5.78125 4.921875 -5.625 4.796875 -5.5 C 4.671875 -5.375 4.523438 -5.3125 4.359375 -5.3125 C 4.191406 -5.3125 4.003906 -5.390625 3.796875 -5.546875 C 3.585938 -5.710938 3.429688 -5.796875 3.328125 -5.796875 C 3.242188 -5.796875 3.148438 -5.75 3.046875 -5.65625 C 2.835938 -5.457031 2.617188 -5.132812 2.390625 -4.6875 L 2.390625 -1.53125 C 2.390625 -1.164062 2.429688 -0.890625 2.515625 -0.703125 C 2.578125 -0.578125 2.6875 -0.472656 2.84375 -0.390625 C 3.007812 -0.304688 3.238281 -0.265625 3.53125 -0.265625 L 3.53125 0 L 0.171875 0 L 0.171875 -0.265625 C 0.503906 -0.265625 0.75 -0.316406 0.90625 -0.421875 C 1.03125 -0.492188 1.113281 -0.613281 1.15625 -0.78125 C 1.1875 -0.863281 1.203125 -1.097656 1.203125 -1.484375 L 1.203125 -4.03125 C 1.203125 -4.789062 1.1875 -5.242188 1.15625 -5.390625 C 1.125 -5.535156 1.066406 -5.640625 0.984375 -5.703125 C 0.898438 -5.773438 0.796875 -5.8125 0.671875 -5.8125 C 0.515625 -5.8125 0.347656 -5.773438 0.171875 -5.703125 L 0.09375 -5.96875 L 2.078125 -6.765625 Z M 2.390625 -6.765625 "/>
</g>
<g id="glyph-0-20">
<path d="M 2.71875 -10.203125 L 2.71875 -1.484375 C 2.71875 -1.078125 2.75 -0.804688 2.8125 -0.671875 C 2.875 -0.535156 2.96875 -0.429688 3.09375 -0.359375 C 3.21875 -0.296875 3.445312 -0.265625 3.78125 -0.265625 L 3.78125 0 L 0.5625 0 L 0.5625 -0.265625 C 0.863281 -0.265625 1.066406 -0.289062 1.171875 -0.34375 C 1.285156 -0.40625 1.375 -0.507812 1.4375 -0.65625 C 1.5 -0.800781 1.53125 -1.078125 1.53125 -1.484375 L 1.53125 -7.453125 C 1.53125 -8.203125 1.507812 -8.660156 1.46875 -8.828125 C 1.4375 -8.992188 1.382812 -9.109375 1.3125 -9.171875 C 1.238281 -9.234375 1.144531 -9.265625 1.03125 -9.265625 C 0.90625 -9.265625 0.75 -9.226562 0.5625 -9.15625 L 0.4375 -9.40625 L 2.390625 -10.203125 Z M 2.71875 -10.203125 "/>
</g>
<g id="glyph-0-21">
<path d="M 9.03125 -9.953125 L 9.28125 -6.890625 L 9.03125 -6.890625 C 8.769531 -7.648438 8.441406 -8.222656 8.046875 -8.609375 C 7.460938 -9.171875 6.71875 -9.453125 5.8125 -9.453125 C 4.570312 -9.453125 3.628906 -8.960938 2.984375 -7.984375 C 2.441406 -7.148438 2.171875 -6.164062 2.171875 -5.03125 C 2.171875 -4.09375 2.347656 -3.238281 2.703125 -2.46875 C 3.066406 -1.707031 3.535156 -1.148438 4.109375 -0.796875 C 4.691406 -0.441406 5.289062 -0.265625 5.90625 -0.265625 C 6.269531 -0.265625 6.617188 -0.304688 6.953125 -0.390625 C 7.285156 -0.484375 7.609375 -0.617188 7.921875 -0.796875 L 7.921875 -3.625 C 7.921875 -4.101562 7.882812 -4.414062 7.8125 -4.5625 C 7.738281 -4.71875 7.625 -4.835938 7.46875 -4.921875 C 7.3125 -5.003906 7.035156 -5.046875 6.640625 -5.046875 L 6.640625 -5.3125 L 10.40625 -5.3125 L 10.40625 -5.046875 L 10.234375 -5.046875 C 9.859375 -5.046875 9.601562 -4.921875 9.46875 -4.671875 C 9.363281 -4.492188 9.3125 -4.144531 9.3125 -3.625 L 9.3125 -0.640625 C 8.769531 -0.335938 8.226562 -0.117188 7.6875 0.015625 C 7.15625 0.148438 6.5625 0.21875 5.90625 0.21875 C 4.019531 0.21875 2.585938 -0.382812 1.609375 -1.59375 C 0.878906 -2.488281 0.515625 -3.53125 0.515625 -4.71875 C 0.515625 -5.570312 0.722656 -6.390625 1.140625 -7.171875 C 1.617188 -8.109375 2.285156 -8.828125 3.140625 -9.328125 C 3.859375 -9.742188 4.703125 -9.953125 5.671875 -9.953125 C 6.023438 -9.953125 6.347656 -9.921875 6.640625 -9.859375 C 6.929688 -9.804688 7.34375 -9.679688 7.875 -9.484375 C 8.132812 -9.390625 8.3125 -9.34375 8.40625 -9.34375 C 8.5 -9.34375 8.578125 -9.382812 8.640625 -9.46875 C 8.703125 -9.550781 8.742188 -9.710938 8.765625 -9.953125 Z M 9.03125 -9.953125 "/>
</g>
<g id="glyph-0-22">
<path d="M 3.671875 -6.765625 C 4.671875 -6.765625 5.472656 -6.390625 6.078125 -5.640625 C 6.585938 -4.992188 6.84375 -4.25 6.84375 -3.40625 C 6.84375 -2.820312 6.703125 -2.226562 6.421875 -1.625 C 6.140625 -1.019531 5.75 -0.5625 5.25 -0.25 C 4.757812 0.0507812 4.207031 0.203125 3.59375 0.203125 C 2.601562 0.203125 1.816406 -0.191406 1.234375 -0.984375 C 0.742188 -1.648438 0.5 -2.394531 0.5 -3.21875 C 0.5 -3.820312 0.644531 -4.421875 0.9375 -5.015625 C 1.238281 -5.617188 1.632812 -6.0625 2.125 -6.34375 C 2.613281 -6.625 3.128906 -6.765625 3.671875 -6.765625 Z M 3.453125 -6.296875 C 3.203125 -6.296875 2.945312 -6.21875 2.6875 -6.0625 C 2.425781 -5.914062 2.21875 -5.65625 2.0625 -5.28125 C 1.90625 -4.90625 1.828125 -4.421875 1.828125 -3.828125 C 1.828125 -2.867188 2.015625 -2.039062 2.390625 -1.34375 C 2.773438 -0.65625 3.28125 -0.3125 3.90625 -0.3125 C 4.375 -0.3125 4.753906 -0.5 5.046875 -0.875 C 5.347656 -1.257812 5.5 -1.921875 5.5 -2.859375 C 5.5 -4.023438 5.25 -4.941406 4.75 -5.609375 C 4.414062 -6.066406 3.984375 -6.296875 3.453125 -6.296875 Z M 3.453125 -6.296875 "/>
</g>
<g id="glyph-0-23">
<path d="M 6.734375 -3.265625 L 2.953125 -3.265625 L 2.296875 -1.71875 C 2.128906 -1.34375 2.046875 -1.0625 2.046875 -0.875 C 2.046875 -0.726562 2.117188 -0.597656 2.265625 -0.484375 C 2.410156 -0.367188 2.71875 -0.296875 3.1875 -0.265625 L 3.1875 0 L 0.109375 0 L 0.109375 -0.265625 C 0.515625 -0.335938 0.78125 -0.429688 0.90625 -0.546875 C 1.144531 -0.773438 1.414062 -1.242188 1.71875 -1.953125 L 5.140625 -9.953125 L 5.390625 -9.953125 L 8.78125 -1.859375 C 9.050781 -1.210938 9.296875 -0.789062 9.515625 -0.59375 C 9.742188 -0.394531 10.054688 -0.285156 10.453125 -0.265625 L 10.453125 0 L 6.609375 0 L 6.609375 -0.265625 C 6.992188 -0.285156 7.253906 -0.347656 7.390625 -0.453125 C 7.535156 -0.566406 7.609375 -0.703125 7.609375 -0.859375 C 7.609375 -1.066406 7.507812 -1.398438 7.3125 -1.859375 Z M 6.53125 -3.796875 L 4.875 -7.71875 L 3.1875 -3.796875 Z M 6.53125 -3.796875 "/>
</g>
<g id="glyph-0-24">
<path d="M 0.125 -6.578125 L 3.21875 -6.578125 L 3.21875 -6.3125 L 3.015625 -6.3125 C 2.828125 -6.3125 2.679688 -6.265625 2.578125 -6.171875 C 2.484375 -6.078125 2.4375 -5.957031 2.4375 -5.8125 C 2.4375 -5.644531 2.488281 -5.445312 2.59375 -5.21875 L 4.125 -1.578125 L 5.65625 -5.34375 C 5.769531 -5.613281 5.828125 -5.816406 5.828125 -5.953125 C 5.828125 -6.023438 5.804688 -6.082031 5.765625 -6.125 C 5.710938 -6.195312 5.644531 -6.242188 5.5625 -6.265625 C 5.476562 -6.296875 5.3125 -6.3125 5.0625 -6.3125 L 5.0625 -6.578125 L 7.21875 -6.578125 L 7.21875 -6.3125 C 6.96875 -6.289062 6.796875 -6.238281 6.703125 -6.15625 C 6.535156 -6.007812 6.382812 -5.769531 6.25 -5.4375 L 3.90625 0.203125 L 3.625 0.203125 L 1.265625 -5.34375 C 1.160156 -5.601562 1.0625 -5.789062 0.96875 -5.90625 C 0.875 -6.019531 0.753906 -6.113281 0.609375 -6.1875 C 0.523438 -6.226562 0.363281 -6.269531 0.125 -6.3125 Z M 0.125 -6.578125 "/>
</g>
<g id="glyph-0-25">
<path d="M 13.765625 -9.734375 L 13.765625 -9.46875 C 13.503906 -9.46875 13.296875 -9.421875 13.140625 -9.328125 C 12.984375 -9.242188 12.832031 -9.078125 12.6875 -8.828125 C 12.59375 -8.660156 12.441406 -8.257812 12.234375 -7.625 L 9.53125 0.21875 L 9.234375 0.21875 L 7.015625 -6 L 4.8125 0.21875 L 4.5625 0.21875 L 1.671875 -7.859375 C 1.453125 -8.460938 1.3125 -8.820312 1.25 -8.9375 C 1.15625 -9.113281 1.023438 -9.242188 0.859375 -9.328125 C 0.703125 -9.421875 0.476562 -9.46875 0.1875 -9.46875 L 0.1875 -9.734375 L 3.796875 -9.734375 L 3.796875 -9.46875 L 3.625 -9.46875 C 3.375 -9.46875 3.179688 -9.410156 3.046875 -9.296875 C 2.910156 -9.179688 2.84375 -9.039062 2.84375 -8.875 C 2.84375 -8.707031 2.945312 -8.320312 3.15625 -7.71875 L 5.078125 -2.265625 L 6.6875 -6.90625 L 6.40625 -7.71875 L 6.171875 -8.375 C 6.066406 -8.613281 5.957031 -8.828125 5.84375 -9.015625 C 5.78125 -9.097656 5.703125 -9.171875 5.609375 -9.234375 C 5.484375 -9.328125 5.363281 -9.390625 5.25 -9.421875 C 5.15625 -9.453125 5.007812 -9.46875 4.8125 -9.46875 L 4.8125 -9.734375 L 8.609375 -9.734375 L 8.609375 -9.46875 L 8.34375 -9.46875 C 8.082031 -9.46875 7.890625 -9.410156 7.765625 -9.296875 C 7.640625 -9.179688 7.578125 -9.023438 7.578125 -8.828125 C 7.578125 -8.585938 7.679688 -8.160156 7.890625 -7.546875 L 9.765625 -2.265625 L 11.609375 -7.625 C 11.828125 -8.21875 11.9375 -8.628906 11.9375 -8.859375 C 11.9375 -8.972656 11.898438 -9.078125 11.828125 -9.171875 C 11.753906 -9.265625 11.664062 -9.332031 11.5625 -9.375 C 11.382812 -9.4375 11.148438 -9.46875 10.859375 -9.46875 L 10.859375 -9.734375 Z M 13.765625 -9.734375 "/>
</g>
<g id="glyph-0-26">
<path d="M 4.703125 -6.765625 L 4.703125 -4.53125 L 4.46875 -4.53125 C 4.289062 -5.226562 4.054688 -5.703125 3.765625 -5.953125 C 3.484375 -6.210938 3.125 -6.34375 2.6875 -6.34375 C 2.351562 -6.34375 2.082031 -6.253906 1.875 -6.078125 C 1.664062 -5.898438 1.5625 -5.703125 1.5625 -5.484375 C 1.5625 -5.222656 1.640625 -4.992188 1.796875 -4.796875 C 1.941406 -4.609375 2.242188 -4.398438 2.703125 -4.171875 L 3.75 -3.671875 C 4.71875 -3.191406 5.203125 -2.566406 5.203125 -1.796875 C 5.203125 -1.191406 4.972656 -0.707031 4.515625 -0.34375 C 4.066406 0.0195312 3.566406 0.203125 3.015625 0.203125 C 2.609375 0.203125 2.144531 0.128906 1.625 -0.015625 C 1.46875 -0.0664062 1.335938 -0.09375 1.234375 -0.09375 C 1.128906 -0.09375 1.046875 -0.03125 0.984375 0.09375 L 0.75 0.09375 L 0.75 -2.25 L 0.984375 -2.25 C 1.117188 -1.570312 1.375 -1.0625 1.75 -0.71875 C 2.125 -0.382812 2.546875 -0.21875 3.015625 -0.21875 C 3.347656 -0.21875 3.617188 -0.3125 3.828125 -0.5 C 4.035156 -0.695312 4.140625 -0.9375 4.140625 -1.21875 C 4.140625 -1.539062 4.023438 -1.816406 3.796875 -2.046875 C 3.566406 -2.273438 3.101562 -2.5625 2.40625 -2.90625 C 1.707031 -3.25 1.253906 -3.554688 1.046875 -3.828125 C 0.828125 -4.109375 0.71875 -4.457031 0.71875 -4.875 C 0.71875 -5.40625 0.898438 -5.851562 1.265625 -6.21875 C 1.640625 -6.582031 2.125 -6.765625 2.71875 -6.765625 C 2.96875 -6.765625 3.28125 -6.710938 3.65625 -6.609375 C 3.894531 -6.535156 4.054688 -6.5 4.140625 -6.5 C 4.210938 -6.5 4.269531 -6.515625 4.3125 -6.546875 C 4.363281 -6.578125 4.414062 -6.648438 4.46875 -6.765625 Z M 4.703125 -6.765625 "/>
</g>
<g id="glyph-1-0">
<path d="M 0.296875 0 L 0.296875 -0.3125 L 0.734375 -0.3125 C 1.222656 -0.3125 1.570312 -0.46875 1.78125 -0.78125 C 1.90625 -0.96875 1.96875 -1.390625 1.96875 -2.046875 L 1.96875 -9.53125 C 1.96875 -10.257812 1.882812 -10.710938 1.71875 -10.890625 C 1.5 -11.140625 1.171875 -11.265625 0.734375 -11.265625 L 0.296875 -11.265625 L 0.296875 -11.59375 L 5.015625 -11.59375 C 6.742188 -11.59375 8.0625 -11.394531 8.96875 -11 C 9.875 -10.601562 10.597656 -9.945312 11.140625 -9.03125 C 11.691406 -8.113281 11.96875 -7.054688 11.96875 -5.859375 C 11.96875 -4.242188 11.476562 -2.894531 10.5 -1.8125 C 9.40625 -0.601562 7.734375 0 5.484375 0 Z M 3.609375 -0.84375 C 4.328125 -0.675781 4.929688 -0.59375 5.421875 -0.59375 C 6.742188 -0.59375 7.835938 -1.054688 8.703125 -1.984375 C 9.578125 -2.921875 10.015625 -4.179688 10.015625 -5.765625 C 10.015625 -7.367188 9.578125 -8.628906 8.703125 -9.546875 C 7.835938 -10.472656 6.722656 -10.9375 5.359375 -10.9375 C 4.847656 -10.9375 4.265625 -10.851562 3.609375 -10.6875 Z M 3.609375 -0.84375 "/>
</g>
<g id="glyph-1-1">
<path d="M 1.859375 -4.875 C 1.859375 -3.71875 2.140625 -2.804688 2.703125 -2.140625 C 3.273438 -1.484375 3.945312 -1.15625 4.71875 -1.15625 C 5.226562 -1.15625 5.671875 -1.296875 6.046875 -1.578125 C 6.429688 -1.859375 6.75 -2.34375 7 -3.03125 L 7.265625 -2.859375 C 7.148438 -2.078125 6.800781 -1.363281 6.21875 -0.71875 C 5.644531 -0.0820312 4.925781 0.234375 4.0625 0.234375 C 3.125 0.234375 2.320312 -0.128906 1.65625 -0.859375 C 0.988281 -1.585938 0.65625 -2.570312 0.65625 -3.8125 C 0.65625 -5.144531 0.992188 -6.1875 1.671875 -6.9375 C 2.359375 -7.6875 3.222656 -8.0625 4.265625 -8.0625 C 5.140625 -8.0625 5.859375 -7.769531 6.421875 -7.1875 C 6.984375 -6.613281 7.265625 -5.84375 7.265625 -4.875 Z M 1.859375 -5.375 L 5.484375 -5.375 C 5.453125 -5.875 5.394531 -6.226562 5.3125 -6.4375 C 5.164062 -6.75 4.953125 -6.992188 4.671875 -7.171875 C 4.390625 -7.359375 4.09375 -7.453125 3.78125 -7.453125 C 3.3125 -7.453125 2.890625 -7.269531 2.515625 -6.90625 C 2.140625 -6.539062 1.921875 -6.03125 1.859375 -5.375 Z M 1.859375 -5.375 "/>
</g>
<g id="glyph-1-2">
<path d="M 3.234375 -12.15625 L 3.234375 -1.765625 C 3.234375 -1.273438 3.269531 -0.953125 3.34375 -0.796875 C 3.414062 -0.640625 3.523438 -0.519531 3.671875 -0.4375 C 3.816406 -0.351562 4.09375 -0.3125 4.5 -0.3125 L 4.5 0 L 0.671875 0 L 0.671875 -0.3125 C 1.023438 -0.3125 1.265625 -0.347656 1.390625 -0.421875 C 1.523438 -0.492188 1.628906 -0.613281 1.703125 -0.78125 C 1.773438 -0.957031 1.8125 -1.285156 1.8125 -1.765625 L 1.8125 -8.875 C 1.8125 -9.757812 1.789062 -10.300781 1.75 -10.5 C 1.71875 -10.707031 1.65625 -10.847656 1.5625 -10.921875 C 1.476562 -10.992188 1.367188 -11.03125 1.234375 -11.03125 C 1.085938 -11.03125 0.898438 -10.984375 0.671875 -10.890625 L 0.515625 -11.1875 L 2.859375 -12.15625 Z M 3.234375 -12.15625 "/>
</g>
<g id="glyph-1-3">
<path d="M 4.984375 -1.125 C 4.179688 -0.507812 3.675781 -0.148438 3.46875 -0.046875 C 3.164062 0.0859375 2.835938 0.15625 2.484375 0.15625 C 1.941406 0.15625 1.492188 -0.0234375 1.140625 -0.390625 C 0.796875 -0.765625 0.625 -1.253906 0.625 -1.859375 C 0.625 -2.234375 0.707031 -2.5625 0.875 -2.84375 C 1.113281 -3.226562 1.519531 -3.59375 2.09375 -3.9375 C 2.675781 -4.28125 3.640625 -4.695312 4.984375 -5.1875 L 4.984375 -5.5 C 4.984375 -6.28125 4.859375 -6.8125 4.609375 -7.09375 C 4.359375 -7.382812 4 -7.53125 3.53125 -7.53125 C 3.164062 -7.53125 2.878906 -7.4375 2.671875 -7.25 C 2.453125 -7.050781 2.34375 -6.828125 2.34375 -6.578125 L 2.359375 -6.078125 C 2.359375 -5.816406 2.289062 -5.613281 2.15625 -5.46875 C 2.03125 -5.332031 1.859375 -5.265625 1.640625 -5.265625 C 1.429688 -5.265625 1.257812 -5.335938 1.125 -5.484375 C 0.988281 -5.628906 0.921875 -5.832031 0.921875 -6.09375 C 0.921875 -6.582031 1.171875 -7.03125 1.671875 -7.4375 C 2.171875 -7.851562 2.875 -8.0625 3.78125 -8.0625 C 4.476562 -8.0625 5.050781 -7.941406 5.5 -7.703125 C 5.832031 -7.523438 6.078125 -7.25 6.234375 -6.875 C 6.335938 -6.632812 6.390625 -6.132812 6.390625 -5.375 L 6.390625 -2.71875 C 6.390625 -1.96875 6.40625 -1.507812 6.4375 -1.34375 C 6.46875 -1.175781 6.515625 -1.0625 6.578125 -1 C 6.640625 -0.945312 6.710938 -0.921875 6.796875 -0.921875 C 6.890625 -0.921875 6.972656 -0.941406 7.046875 -0.984375 C 7.160156 -1.054688 7.390625 -1.265625 7.734375 -1.609375 L 7.734375 -1.125 C 7.097656 -0.269531 6.488281 0.15625 5.90625 0.15625 C 5.625 0.15625 5.398438 0.0625 5.234375 -0.125 C 5.066406 -0.320312 4.984375 -0.65625 4.984375 -1.125 Z M 4.984375 -1.6875 L 4.984375 -4.671875 C 4.117188 -4.328125 3.5625 -4.082031 3.3125 -3.9375 C 2.863281 -3.6875 2.539062 -3.425781 2.34375 -3.15625 C 2.15625 -2.882812 2.0625 -2.582031 2.0625 -2.25 C 2.0625 -1.84375 2.179688 -1.503906 2.421875 -1.234375 C 2.671875 -0.960938 2.953125 -0.828125 3.265625 -0.828125 C 3.703125 -0.828125 4.273438 -1.113281 4.984375 -1.6875 Z M 4.984375 -1.6875 "/>
</g>
<g id="glyph-1-4">
<path d="M 0.109375 -7.828125 L 3.75 -7.828125 L 3.75 -7.515625 L 3.578125 -7.515625 C 3.316406 -7.515625 3.117188 -7.457031 2.984375 -7.34375 C 2.859375 -7.226562 2.796875 -7.09375 2.796875 -6.9375 C 2.796875 -6.707031 2.890625 -6.394531 3.078125 -6 L 4.984375 -2.0625 L 6.734375 -6.390625 C 6.835938 -6.617188 6.890625 -6.847656 6.890625 -7.078125 C 6.890625 -7.179688 6.867188 -7.257812 6.828125 -7.3125 C 6.785156 -7.375 6.710938 -7.421875 6.609375 -7.453125 C 6.515625 -7.492188 6.34375 -7.515625 6.09375 -7.515625 L 6.09375 -7.828125 L 8.640625 -7.828125 L 8.640625 -7.515625 C 8.429688 -7.492188 8.269531 -7.445312 8.15625 -7.375 C 8.039062 -7.300781 7.914062 -7.171875 7.78125 -6.984375 C 7.726562 -6.910156 7.632812 -6.691406 7.5 -6.328125 L 4.3125 1.484375 C 4 2.234375 3.59375 2.800781 3.09375 3.1875 C 2.59375 3.582031 2.113281 3.78125 1.65625 3.78125 C 1.320312 3.78125 1.046875 3.679688 0.828125 3.484375 C 0.609375 3.296875 0.5 3.070312 0.5 2.8125 C 0.5 2.582031 0.578125 2.394531 0.734375 2.25 C 0.890625 2.101562 1.109375 2.03125 1.390625 2.03125 C 1.578125 2.03125 1.832031 2.09375 2.15625 2.21875 C 2.382812 2.300781 2.523438 2.34375 2.578125 2.34375 C 2.753906 2.34375 2.941406 2.253906 3.140625 2.078125 C 3.335938 1.898438 3.539062 1.554688 3.75 1.046875 L 4.3125 -0.3125 L 1.5 -6.21875 C 1.414062 -6.394531 1.273438 -6.613281 1.078125 -6.875 C 0.941406 -7.070312 0.828125 -7.203125 0.734375 -7.265625 C 0.597656 -7.359375 0.390625 -7.441406 0.109375 -7.515625 Z M 0.109375 -7.828125 "/>
</g>
<g id="glyph-1-5">
</g>
<g id="glyph-1-6">
<path d="M 5.4375 3.421875 L 5.4375 3.75 C 4.570312 3.3125 3.851562 2.800781 3.28125 2.21875 C 2.457031 1.394531 1.820312 0.421875 1.375 -0.703125 C 0.9375 -1.828125 0.71875 -2.992188 0.71875 -4.203125 C 0.71875 -5.960938 1.148438 -7.570312 2.015625 -9.03125 C 2.890625 -10.488281 4.03125 -11.53125 5.4375 -12.15625 L 5.4375 -11.796875 C 4.738281 -11.410156 4.160156 -10.878906 3.703125 -10.203125 C 3.253906 -9.523438 2.914062 -8.671875 2.6875 -7.640625 C 2.46875 -6.609375 2.359375 -5.535156 2.359375 -4.421875 C 2.359375 -3.203125 2.457031 -2.09375 2.65625 -1.09375 C 2.800781 -0.3125 2.976562 0.316406 3.1875 0.796875 C 3.394531 1.273438 3.675781 1.734375 4.03125 2.171875 C 4.394531 2.609375 4.863281 3.023438 5.4375 3.421875 Z M 5.4375 3.421875 "/>
</g>
<g id="glyph-1-7">
<path d="M 2.875 -6.390625 C 3.4375 -6.960938 3.769531 -7.289062 3.875 -7.375 C 4.132812 -7.59375 4.410156 -7.757812 4.703125 -7.875 C 5.003906 -8 5.300781 -8.0625 5.59375 -8.0625 C 6.082031 -8.0625 6.503906 -7.914062 6.859375 -7.625 C 7.210938 -7.34375 7.445312 -6.929688 7.5625 -6.390625 C 8.144531 -7.078125 8.640625 -7.523438 9.046875 -7.734375 C 9.453125 -7.953125 9.867188 -8.0625 10.296875 -8.0625 C 10.710938 -8.0625 11.082031 -7.953125 11.40625 -7.734375 C 11.726562 -7.523438 11.984375 -7.175781 12.171875 -6.6875 C 12.296875 -6.351562 12.359375 -5.835938 12.359375 -5.140625 L 12.359375 -1.765625 C 12.359375 -1.273438 12.394531 -0.941406 12.46875 -0.765625 C 12.519531 -0.640625 12.625 -0.53125 12.78125 -0.4375 C 12.9375 -0.351562 13.1875 -0.3125 13.53125 -0.3125 L 13.53125 0 L 9.671875 0 L 9.671875 -0.3125 L 9.828125 -0.3125 C 10.171875 -0.3125 10.4375 -0.375 10.625 -0.5 C 10.75 -0.59375 10.84375 -0.738281 10.90625 -0.9375 C 10.925781 -1.03125 10.9375 -1.304688 10.9375 -1.765625 L 10.9375 -5.140625 C 10.9375 -5.773438 10.859375 -6.222656 10.703125 -6.484375 C 10.484375 -6.847656 10.128906 -7.03125 9.640625 -7.03125 C 9.335938 -7.03125 9.03125 -6.953125 8.71875 -6.796875 C 8.414062 -6.648438 8.050781 -6.375 7.625 -5.96875 L 7.609375 -5.875 L 7.625 -5.5 L 7.625 -1.765625 C 7.625 -1.234375 7.648438 -0.898438 7.703125 -0.765625 C 7.765625 -0.640625 7.878906 -0.53125 8.046875 -0.4375 C 8.210938 -0.351562 8.492188 -0.3125 8.890625 -0.3125 L 8.890625 0 L 4.9375 0 L 4.9375 -0.3125 C 5.375 -0.3125 5.671875 -0.359375 5.828125 -0.453125 C 5.992188 -0.554688 6.109375 -0.710938 6.171875 -0.921875 C 6.203125 -1.015625 6.21875 -1.296875 6.21875 -1.765625 L 6.21875 -5.140625 C 6.21875 -5.773438 6.125 -6.234375 5.9375 -6.515625 C 5.675781 -6.878906 5.320312 -7.0625 4.875 -7.0625 C 4.570312 -7.0625 4.269531 -6.976562 3.96875 -6.8125 C 3.488281 -6.5625 3.125 -6.28125 2.875 -5.96875 L 2.875 -1.765625 C 2.875 -1.253906 2.90625 -0.921875 2.96875 -0.765625 C 3.039062 -0.609375 3.144531 -0.492188 3.28125 -0.421875 C 3.425781 -0.347656 3.710938 -0.3125 4.140625 -0.3125 L 4.140625 0 L 0.28125 0 L 0.28125 -0.3125 C 0.632812 -0.3125 0.878906 -0.347656 1.015625 -0.421875 C 1.160156 -0.492188 1.269531 -0.613281 1.34375 -0.78125 C 1.425781 -0.957031 1.46875 -1.285156 1.46875 -1.765625 L 1.46875 -4.765625 C 1.46875 -5.617188 1.441406 -6.171875 1.390625 -6.421875 C 1.347656 -6.609375 1.28125 -6.738281 1.1875 -6.8125 C 1.101562 -6.882812 0.988281 -6.921875 0.84375 -6.921875 C 0.6875 -6.921875 0.5 -6.878906 0.28125 -6.796875 L 0.140625 -7.09375 L 2.5 -8.0625 L 2.875 -8.0625 Z M 2.875 -6.390625 "/>
</g>
<g id="glyph-1-8">
<path d="M 5.609375 -8.0625 L 5.609375 -5.390625 L 5.328125 -5.390625 C 5.109375 -6.222656 4.828125 -6.789062 4.484375 -7.09375 C 4.148438 -7.394531 3.722656 -7.546875 3.203125 -7.546875 C 2.796875 -7.546875 2.46875 -7.441406 2.21875 -7.234375 C 1.976562 -7.023438 1.859375 -6.789062 1.859375 -6.53125 C 1.859375 -6.21875 1.953125 -5.945312 2.140625 -5.71875 C 2.316406 -5.476562 2.675781 -5.226562 3.21875 -4.96875 L 4.453125 -4.359375 C 5.609375 -3.796875 6.1875 -3.054688 6.1875 -2.140625 C 6.1875 -1.421875 5.914062 -0.84375 5.375 -0.40625 C 4.84375 0.0195312 4.242188 0.234375 3.578125 0.234375 C 3.097656 0.234375 2.550781 0.148438 1.9375 -0.015625 C 1.75 -0.078125 1.597656 -0.109375 1.484375 -0.109375 C 1.347656 -0.109375 1.242188 -0.03125 1.171875 0.125 L 0.890625 0.125 L 0.890625 -2.671875 L 1.171875 -2.671875 C 1.328125 -1.878906 1.628906 -1.28125 2.078125 -0.875 C 2.535156 -0.46875 3.039062 -0.265625 3.59375 -0.265625 C 3.988281 -0.265625 4.3125 -0.378906 4.5625 -0.609375 C 4.8125 -0.835938 4.9375 -1.113281 4.9375 -1.4375 C 4.9375 -1.832031 4.796875 -2.164062 4.515625 -2.4375 C 4.242188 -2.707031 3.691406 -3.046875 2.859375 -3.453125 C 2.035156 -3.859375 1.492188 -4.226562 1.234375 -4.5625 C 0.984375 -4.882812 0.859375 -5.296875 0.859375 -5.796875 C 0.859375 -6.441406 1.078125 -6.976562 1.515625 -7.40625 C 1.953125 -7.84375 2.523438 -8.0625 3.234375 -8.0625 C 3.535156 -8.0625 3.90625 -7.992188 4.34375 -7.859375 C 4.632812 -7.773438 4.832031 -7.734375 4.9375 -7.734375 C 5.019531 -7.734375 5.085938 -7.753906 5.140625 -7.796875 C 5.191406 -7.835938 5.253906 -7.925781 5.328125 -8.0625 Z M 5.609375 -8.0625 "/>
</g>
<g id="glyph-1-9">
<path d="M 0.390625 -11.796875 L 0.390625 -12.15625 C 1.253906 -11.726562 1.976562 -11.222656 2.5625 -10.640625 C 3.375 -9.804688 4 -8.828125 4.4375 -7.703125 C 4.882812 -6.585938 5.109375 -5.425781 5.109375 -4.21875 C 5.109375 -2.445312 4.671875 -0.835938 3.796875 0.609375 C 2.929688 2.066406 1.796875 3.113281 0.390625 3.75 L 0.390625 3.421875 C 1.085938 3.035156 1.660156 2.503906 2.109375 1.828125 C 2.566406 1.160156 2.90625 0.3125 3.125 -0.71875 C 3.34375 -1.75 3.453125 -2.828125 3.453125 -3.953125 C 3.453125 -5.171875 3.359375 -6.28125 3.171875 -7.28125 C 3.035156 -8.0625 2.859375 -8.6875 2.640625 -9.15625 C 2.429688 -9.632812 2.148438 -10.09375 1.796875 -10.53125 C 1.441406 -10.96875 0.972656 -11.390625 0.390625 -11.796875 Z M 0.390625 -11.796875 "/>
</g>
<g id="glyph-2-0">
<path d="M 0 -11.828125 L 0 -8.734375 L -5.421875 -4.8125 C -5.410156 -4.519531 -5.40625 -4.285156 -5.40625 -4.109375 C -5.40625 -4.023438 -5.40625 -3.941406 -5.40625 -3.859375 C -5.40625 -3.773438 -5.410156 -3.6875 -5.421875 -3.59375 L -2.046875 -3.59375 C -1.316406 -3.59375 -0.863281 -3.675781 -0.6875 -3.84375 C -0.4375 -4.050781 -0.3125 -4.375 -0.3125 -4.8125 L -0.3125 -5.265625 L 0 -5.265625 L 0 -0.296875 L -0.3125 -0.296875 L -0.3125 -0.734375 C -0.3125 -1.222656 -0.472656 -1.570312 -0.796875 -1.78125 C -0.972656 -1.90625 -1.390625 -1.96875 -2.046875 -1.96875 L -9.53125 -1.96875 C -10.257812 -1.96875 -10.710938 -1.882812 -10.890625 -1.71875 C -11.140625 -1.5 -11.265625 -1.171875 -11.265625 -0.734375 L -11.265625 -0.296875 L -11.59375 -0.296875 L -11.59375 -4.515625 C -11.59375 -5.742188 -11.5 -6.648438 -11.3125 -7.234375 C -11.132812 -7.828125 -10.804688 -8.328125 -10.328125 -8.734375 C -9.847656 -9.140625 -9.273438 -9.34375 -8.609375 -9.34375 C -7.890625 -9.34375 -7.269531 -9.109375 -6.75 -8.640625 C -6.226562 -8.179688 -5.859375 -7.460938 -5.640625 -6.484375 L -2.3125 -8.875 C -1.550781 -9.425781 -1.046875 -9.894531 -0.796875 -10.28125 C -0.546875 -10.675781 -0.382812 -11.191406 -0.3125 -11.828125 Z M -5.953125 -3.59375 C -5.953125 -3.707031 -5.953125 -3.800781 -5.953125 -3.875 C -5.953125 -3.957031 -5.953125 -4.023438 -5.953125 -4.078125 C -5.953125 -5.179688 -6.191406 -6.015625 -6.671875 -6.578125 C -7.148438 -7.140625 -7.757812 -7.421875 -8.5 -7.421875 C -9.21875 -7.421875 -9.800781 -7.191406 -10.25 -6.734375 C -10.707031 -6.285156 -10.9375 -5.6875 -10.9375 -4.9375 C -10.9375 -4.601562 -10.882812 -4.15625 -10.78125 -3.59375 Z M -5.953125 -3.59375 "/>
</g>
<g id="glyph-2-1">
<path d="M -4.875 -1.859375 C -3.71875 -1.859375 -2.804688 -2.140625 -2.140625 -2.703125 C -1.484375 -3.273438 -1.15625 -3.945312 -1.15625 -4.71875 C -1.15625 -5.226562 -1.296875 -5.671875 -1.578125 -6.046875 C -1.859375 -6.429688 -2.34375 -6.75 -3.03125 -7 L -2.859375 -7.265625 C -2.078125 -7.148438 -1.363281 -6.800781 -0.71875 -6.21875 C -0.0820312 -5.644531 0.234375 -4.925781 0.234375 -4.0625 C 0.234375 -3.125 -0.128906 -2.320312 -0.859375 -1.65625 C -1.585938 -0.988281 -2.570312 -0.65625 -3.8125 -0.65625 C -5.144531 -0.65625 -6.1875 -0.992188 -6.9375 -1.671875 C -7.6875 -2.359375 -8.0625 -3.222656 -8.0625 -4.265625 C -8.0625 -5.140625 -7.769531 -5.859375 -7.1875 -6.421875 C -6.613281 -6.984375 -5.84375 -7.265625 -4.875 -7.265625 Z M -5.375 -1.859375 L -5.375 -5.484375 C -5.875 -5.453125 -6.226562 -5.394531 -6.4375 -5.3125 C -6.75 -5.164062 -6.992188 -4.953125 -7.171875 -4.671875 C -7.359375 -4.390625 -7.453125 -4.09375 -7.453125 -3.78125 C -7.453125 -3.3125 -7.269531 -2.890625 -6.90625 -2.515625 C -6.539062 -2.140625 -6.03125 -1.921875 -5.375 -1.859375 Z M -5.375 -1.859375 "/>
</g>
<g id="glyph-2-2">
<path d="M -8.0625 -5.609375 L -5.390625 -5.609375 L -5.390625 -5.328125 C -6.222656 -5.109375 -6.789062 -4.828125 -7.09375 -4.484375 C -7.394531 -4.148438 -7.546875 -3.722656 -7.546875 -3.203125 C -7.546875 -2.796875 -7.441406 -2.46875 -7.234375 -2.21875 C -7.023438 -1.976562 -6.789062 -1.859375 -6.53125 -1.859375 C -6.21875 -1.859375 -5.945312 -1.953125 -5.71875 -2.140625 C -5.476562 -2.316406 -5.226562 -2.675781 -4.96875 -3.21875 L -4.359375 -4.453125 C -3.796875 -5.609375 -3.054688 -6.1875 -2.140625 -6.1875 C -1.421875 -6.1875 -0.84375 -5.914062 -0.40625 -5.375 C 0.0195312 -4.84375 0.234375 -4.242188 0.234375 -3.578125 C 0.234375 -3.097656 0.148438 -2.550781 -0.015625 -1.9375 C -0.078125 -1.75 -0.109375 -1.597656 -0.109375 -1.484375 C -0.109375 -1.347656 -0.03125 -1.242188 0.125 -1.171875 L 0.125 -0.890625 L -2.671875 -0.890625 L -2.671875 -1.171875 C -1.878906 -1.328125 -1.28125 -1.628906 -0.875 -2.078125 C -0.46875 -2.535156 -0.265625 -3.039062 -0.265625 -3.59375 C -0.265625 -3.988281 -0.378906 -4.3125 -0.609375 -4.5625 C -0.835938 -4.8125 -1.113281 -4.9375 -1.4375 -4.9375 C -1.832031 -4.9375 -2.164062 -4.796875 -2.4375 -4.515625 C -2.707031 -4.242188 -3.046875 -3.691406 -3.453125 -2.859375 C -3.859375 -2.035156 -4.226562 -1.492188 -4.5625 -1.234375 C -4.882812 -0.984375 -5.296875 -0.859375 -5.796875 -0.859375 C -6.441406 -0.859375 -6.976562 -1.078125 -7.40625 -1.515625 C -7.84375 -1.953125 -8.0625 -2.523438 -8.0625 -3.234375 C -8.0625 -3.535156 -7.992188 -3.90625 -7.859375 -4.34375 C -7.773438 -4.632812 -7.734375 -4.832031 -7.734375 -4.9375 C -7.734375 -5.019531 -7.753906 -5.085938 -7.796875 -5.140625 C -7.835938 -5.191406 -7.925781 -5.253906 -8.0625 -5.328125 Z M -8.0625 -5.609375 "/>
</g>
<g id="glyph-2-3">
<path d="M -7.046875 0.015625 L -8.03125 -2.390625 L -8.03125 -2.71875 L -6.1875 -2.71875 C -6.882812 -3.125 -7.367188 -3.53125 -7.640625 -3.9375 C -7.921875 -4.34375 -8.0625 -4.769531 -8.0625 -5.21875 C -8.0625 -6.007812 -7.753906 -6.664062 -7.140625 -7.1875 C -6.378906 -7.832031 -5.398438 -8.15625 -4.203125 -8.15625 C -2.847656 -8.15625 -1.726562 -7.765625 -0.84375 -6.984375 C -0.125 -6.347656 0.234375 -5.546875 0.234375 -4.578125 C 0.234375 -4.160156 0.175781 -3.796875 0.0625 -3.484375 C -0.0195312 -3.253906 -0.191406 -3 -0.453125 -2.71875 L 1.9375 -2.71875 C 2.46875 -2.71875 2.804688 -2.75 2.953125 -2.8125 C 3.097656 -2.875 3.210938 -2.988281 3.296875 -3.15625 C 3.378906 -3.320312 3.421875 -3.617188 3.421875 -4.046875 L 3.75 -4.046875 L 3.75 0.0625 L 3.421875 0.0625 L 3.421875 -0.15625 C 3.429688 -0.46875 3.375 -0.734375 3.25 -0.953125 C 3.1875 -1.066406 3.082031 -1.148438 2.9375 -1.203125 C 2.800781 -1.265625 2.445312 -1.296875 1.875 -1.296875 L -5.515625 -1.296875 C -6.023438 -1.296875 -6.347656 -1.269531 -6.484375 -1.21875 C -6.617188 -1.175781 -6.71875 -1.101562 -6.78125 -1 C -6.851562 -0.90625 -6.890625 -0.773438 -6.890625 -0.609375 C -6.890625 -0.472656 -6.851562 -0.296875 -6.78125 -0.078125 Z M -5.6875 -2.71875 L -2.765625 -2.71875 C -2.128906 -2.71875 -1.710938 -2.742188 -1.515625 -2.796875 C -1.191406 -2.867188 -0.90625 -3.0625 -0.65625 -3.375 C -0.40625 -3.6875 -0.28125 -4.078125 -0.28125 -4.546875 C -0.28125 -5.117188 -0.5 -5.582031 -0.9375 -5.9375 C -1.519531 -6.394531 -2.335938 -6.625 -3.390625 -6.625 C -4.585938 -6.625 -5.507812 -6.363281 -6.15625 -5.84375 C -6.59375 -5.476562 -6.8125 -5.046875 -6.8125 -4.546875 C -6.8125 -4.273438 -6.742188 -4.003906 -6.609375 -3.734375 C -6.503906 -3.523438 -6.195312 -3.1875 -5.6875 -2.71875 Z M -5.6875 -2.71875 "/>
</g>
<g id="glyph-2-4">
<path d="M -8.0625 -4.375 C -8.0625 -5.5625 -7.609375 -6.515625 -6.703125 -7.234375 C -5.929688 -7.835938 -5.050781 -8.140625 -4.0625 -8.140625 C -3.363281 -8.140625 -2.65625 -7.972656 -1.9375 -7.640625 C -1.21875 -7.304688 -0.675781 -6.84375 -0.3125 -6.25 C 0.0507812 -5.65625 0.234375 -5 0.234375 -4.28125 C 0.234375 -3.101562 -0.234375 -2.164062 -1.171875 -1.46875 C -1.960938 -0.882812 -2.851562 -0.59375 -3.84375 -0.59375 C -4.550781 -0.59375 -5.257812 -0.769531 -5.96875 -1.125 C -6.6875 -1.476562 -7.210938 -1.945312 -7.546875 -2.53125 C -7.890625 -3.113281 -8.0625 -3.726562 -8.0625 -4.375 Z M -7.5 -4.109375 C -7.5 -3.804688 -7.410156 -3.503906 -7.234375 -3.203125 C -7.054688 -2.898438 -6.738281 -2.648438 -6.28125 -2.453125 C -5.832031 -2.265625 -5.253906 -2.171875 -4.546875 -2.171875 C -3.410156 -2.171875 -2.429688 -2.394531 -1.609375 -2.84375 C -0.785156 -3.300781 -0.375 -3.90625 -0.375 -4.65625 C -0.375 -5.207031 -0.597656 -5.660156 -1.046875 -6.015625 C -1.503906 -6.367188 -2.289062 -6.546875 -3.40625 -6.546875 C -4.789062 -6.546875 -5.882812 -6.25 -6.6875 -5.65625 C -7.226562 -5.25 -7.5 -4.734375 -7.5 -4.109375 Z M -7.5 -4.109375 "/>
</g>
<g id="glyph-2-5">
<path d="M -6.40625 -2.828125 C -7.507812 -3.742188 -8.0625 -4.617188 -8.0625 -5.453125 C -8.0625 -5.878906 -7.953125 -6.242188 -7.734375 -6.546875 C -7.523438 -6.859375 -7.175781 -7.101562 -6.6875 -7.28125 C -6.34375 -7.414062 -5.816406 -7.484375 -5.109375 -7.484375 L -1.765625 -7.484375 C -1.273438 -7.484375 -0.941406 -7.519531 -0.765625 -7.59375 C -0.617188 -7.65625 -0.503906 -7.753906 -0.421875 -7.890625 C -0.347656 -8.035156 -0.3125 -8.296875 -0.3125 -8.671875 L 0 -8.671875 L 0 -4.796875 L -0.3125 -4.796875 L -0.3125 -4.96875 C -0.3125 -5.332031 -0.363281 -5.585938 -0.46875 -5.734375 C -0.582031 -5.878906 -0.75 -5.976562 -0.96875 -6.03125 C -1.050781 -6.050781 -1.316406 -6.0625 -1.765625 -6.0625 L -4.96875 -6.0625 C -5.6875 -6.0625 -6.203125 -5.96875 -6.515625 -5.78125 C -6.835938 -5.601562 -7 -5.296875 -7 -4.859375 C -7 -4.179688 -6.628906 -3.503906 -5.890625 -2.828125 L -1.765625 -2.828125 C -1.234375 -2.828125 -0.90625 -2.859375 -0.78125 -2.921875 C -0.613281 -3.003906 -0.492188 -3.113281 -0.421875 -3.25 C -0.347656 -3.382812 -0.3125 -3.671875 -0.3125 -4.109375 L 0 -4.109375 L 0 -0.234375 L -0.3125 -0.234375 L -0.3125 -0.40625 C -0.3125 -0.800781 -0.410156 -1.066406 -0.609375 -1.203125 C -0.816406 -1.347656 -1.203125 -1.421875 -1.765625 -1.421875 L -4.671875 -1.421875 C -5.609375 -1.421875 -6.179688 -1.398438 -6.390625 -1.359375 C -6.597656 -1.316406 -6.738281 -1.25 -6.8125 -1.15625 C -6.882812 -1.070312 -6.921875 -0.953125 -6.921875 -0.796875 C -6.921875 -0.640625 -6.878906 -0.453125 -6.796875 -0.234375 L -7.09375 -0.109375 L -8.0625 -2.46875 L -8.0625 -2.828125 Z M -6.40625 -2.828125 "/>
</g>
<g id="glyph-2-6">
</g>
<g id="glyph-2-7">
<path d="M -11.59375 -10.125 L -8.875 -10.25 L -8.875 -9.921875 C -9.351562 -9.859375 -9.691406 -9.773438 -9.890625 -9.671875 C -10.222656 -9.492188 -10.46875 -9.257812 -10.625 -8.96875 C -10.78125 -8.675781 -10.859375 -8.289062 -10.859375 -7.8125 L -10.859375 -6.171875 L -2.015625 -6.171875 C -1.296875 -6.171875 -0.847656 -6.25 -0.671875 -6.40625 C -0.429688 -6.625 -0.3125 -6.957031 -0.3125 -7.40625 L -0.3125 -7.8125 L 0 -7.8125 L 0 -2.890625 L -0.3125 -2.890625 L -0.3125 -3.3125 C -0.3125 -3.800781 -0.460938 -4.144531 -0.765625 -4.34375 C -0.941406 -4.46875 -1.359375 -4.53125 -2.015625 -4.53125 L -10.859375 -4.53125 L -10.859375 -3.140625 C -10.859375 -2.597656 -10.816406 -2.210938 -10.734375 -1.984375 C -10.628906 -1.691406 -10.421875 -1.441406 -10.109375 -1.234375 C -9.804688 -1.023438 -9.394531 -0.898438 -8.875 -0.859375 L -8.875 -0.53125 L -11.59375 -0.671875 Z M -11.59375 -10.125 "/>
</g>
<g id="glyph-2-8">
<path d="M -12.15625 -2.53125 C -12.15625 -2.769531 -12.066406 -2.972656 -11.890625 -3.140625 C -11.722656 -3.316406 -11.519531 -3.40625 -11.28125 -3.40625 C -11.039062 -3.40625 -10.835938 -3.316406 -10.671875 -3.140625 C -10.503906 -2.972656 -10.421875 -2.769531 -10.421875 -2.53125 C -10.421875 -2.289062 -10.503906 -2.085938 -10.671875 -1.921875 C -10.835938 -1.753906 -11.039062 -1.671875 -11.28125 -1.671875 C -11.519531 -1.671875 -11.722656 -1.753906 -11.890625 -1.921875 C -12.066406 -2.085938 -12.15625 -2.289062 -12.15625 -2.53125 Z M -8.0625 -3.25 L -1.765625 -3.25 C -1.273438 -3.25 -0.945312 -3.28125 -0.78125 -3.34375 C -0.625 -3.414062 -0.503906 -3.519531 -0.421875 -3.65625 C -0.347656 -3.800781 -0.3125 -4.0625 -0.3125 -4.4375 L 0 -4.4375 L 0 -0.625 L -0.3125 -0.625 C -0.3125 -1.007812 -0.347656 -1.265625 -0.421875 -1.390625 C -0.492188 -1.523438 -0.613281 -1.628906 -0.78125 -1.703125 C -0.957031 -1.785156 -1.285156 -1.828125 -1.765625 -1.828125 L -4.78125 -1.828125 C -5.632812 -1.828125 -6.1875 -1.800781 -6.4375 -1.75 C -6.613281 -1.707031 -6.738281 -1.644531 -6.8125 -1.5625 C -6.882812 -1.476562 -6.921875 -1.363281 -6.921875 -1.21875 C -6.921875 -1.050781 -6.878906 -0.851562 -6.796875 -0.625 L -7.09375 -0.515625 L -8.0625 -2.875 Z M -8.0625 -3.25 "/>
</g>
<g id="glyph-2-9">
<path d="M -6.390625 -2.875 C -6.960938 -3.4375 -7.289062 -3.769531 -7.375 -3.875 C -7.59375 -4.132812 -7.757812 -4.410156 -7.875 -4.703125 C -8 -5.003906 -8.0625 -5.300781 -8.0625 -5.59375 C -8.0625 -6.082031 -7.914062 -6.503906 -7.625 -6.859375 C -7.34375 -7.210938 -6.929688 -7.445312 -6.390625 -7.5625 C -7.078125 -8.144531 -7.523438 -8.640625 -7.734375 -9.046875 C -7.953125 -9.453125 -8.0625 -9.867188 -8.0625 -10.296875 C -8.0625 -10.710938 -7.953125 -11.082031 -7.734375 -11.40625 C -7.523438 -11.726562 -7.175781 -11.984375 -6.6875 -12.171875 C -6.351562 -12.296875 -5.835938 -12.359375 -5.140625 -12.359375 L -1.765625 -12.359375 C -1.273438 -12.359375 -0.941406 -12.394531 -0.765625 -12.46875 C -0.640625 -12.519531 -0.53125 -12.625 -0.4375 -12.78125 C -0.351562 -12.9375 -0.3125 -13.1875 -0.3125 -13.53125 L 0 -13.53125 L 0 -9.671875 L -0.3125 -9.671875 L -0.3125 -9.828125 C -0.3125 -10.171875 -0.375 -10.4375 -0.5 -10.625 C -0.59375 -10.75 -0.738281 -10.84375 -0.9375 -10.90625 C -1.03125 -10.925781 -1.304688 -10.9375 -1.765625 -10.9375 L -5.140625 -10.9375 C -5.773438 -10.9375 -6.222656 -10.859375 -6.484375 -10.703125 C -6.847656 -10.484375 -7.03125 -10.128906 -7.03125 -9.640625 C -7.03125 -9.335938 -6.953125 -9.03125 -6.796875 -8.71875 C -6.648438 -8.414062 -6.375 -8.050781 -5.96875 -7.625 L -5.875 -7.609375 L -5.5 -7.625 L -1.765625 -7.625 C -1.234375 -7.625 -0.898438 -7.648438 -0.765625 -7.703125 C -0.640625 -7.765625 -0.53125 -7.878906 -0.4375 -8.046875 C -0.351562 -8.210938 -0.3125 -8.492188 -0.3125 -8.890625 L 0 -8.890625 L 0 -4.9375 L -0.3125 -4.9375 C -0.3125 -5.375 -0.359375 -5.671875 -0.453125 -5.828125 C -0.554688 -5.992188 -0.710938 -6.109375 -0.921875 -6.171875 C -1.015625 -6.203125 -1.296875 -6.21875 -1.765625 -6.21875 L -5.140625 -6.21875 C -5.773438 -6.21875 -6.234375 -6.125 -6.515625 -5.9375 C -6.878906 -5.675781 -7.0625 -5.320312 -7.0625 -4.875 C -7.0625 -4.570312 -6.976562 -4.269531 -6.8125 -3.96875 C -6.5625 -3.488281 -6.28125 -3.125 -5.96875 -2.875 L -1.765625 -2.875 C -1.253906 -2.875 -0.921875 -2.90625 -0.765625 -2.96875 C -0.609375 -3.039062 -0.492188 -3.144531 -0.421875 -3.28125 C -0.347656 -3.425781 -0.3125 -3.710938 -0.3125 -4.140625 L 0 -4.140625 L 0 -0.28125 L -0.3125 -0.28125 C -0.3125 -0.632812 -0.347656 -0.878906 -0.421875 -1.015625 C -0.492188 -1.160156 -0.613281 -1.269531 -0.78125 -1.34375 C -0.957031 -1.425781 -1.285156 -1.46875 -1.765625 -1.46875 L -4.765625 -1.46875 C -5.617188 -1.46875 -6.171875 -1.441406 -6.421875 -1.390625 C -6.609375 -1.347656 -6.738281 -1.28125 -6.8125 -1.1875 C -6.882812 -1.101562 -6.921875 -0.988281 -6.921875 -0.84375 C -6.921875 -0.6875 -6.878906 -0.5 -6.796875 -0.28125 L -7.09375 -0.140625 L -8.0625 -2.5 L -8.0625 -2.875 Z M -6.390625 -2.875 "/>
</g>
<g id="glyph-2-10">
<path d="M 3.421875 -5.4375 L 3.75 -5.4375 C 3.3125 -4.570312 2.800781 -3.851562 2.21875 -3.28125 C 1.394531 -2.457031 0.421875 -1.820312 -0.703125 -1.375 C -1.828125 -0.9375 -2.992188 -0.71875 -4.203125 -0.71875 C -5.960938 -0.71875 -7.570312 -1.148438 -9.03125 -2.015625 C -10.488281 -2.890625 -11.53125 -4.03125 -12.15625 -5.4375 L -11.796875 -5.4375 C -11.410156 -4.738281 -10.878906 -4.160156 -10.203125 -3.703125 C -9.523438 -3.253906 -8.671875 -2.914062 -7.640625 -2.6875 C -6.609375 -2.46875 -5.535156 -2.359375 -4.421875 -2.359375 C -3.203125 -2.359375 -2.09375 -2.457031 -1.09375 -2.65625 C -0.3125 -2.800781 0.316406 -2.976562 0.796875 -3.1875 C 1.273438 -3.394531 1.734375 -3.675781 2.171875 -4.03125 C 2.609375 -4.394531 3.023438 -4.863281 3.421875 -5.4375 Z M 3.421875 -5.4375 "/>
</g>
<g id="glyph-2-11">
<path d="M -11.796875 -0.390625 L -12.15625 -0.390625 C -11.726562 -1.253906 -11.222656 -1.976562 -10.640625 -2.5625 C -9.804688 -3.375 -8.828125 -4 -7.703125 -4.4375 C -6.585938 -4.882812 -5.425781 -5.109375 -4.21875 -5.109375 C -2.445312 -5.109375 -0.835938 -4.671875 0.609375 -3.796875 C 2.066406 -2.929688 3.113281 -1.796875 3.75 -0.390625 L 3.421875 -0.390625 C 3.035156 -1.085938 2.503906 -1.660156 1.828125 -2.109375 C 1.160156 -2.566406 0.3125 -2.90625 -0.71875 -3.125 C -1.75 -3.34375 -2.828125 -3.453125 -3.953125 -3.453125 C -5.171875 -3.453125 -6.28125 -3.359375 -7.28125 -3.171875 C -8.0625 -3.035156 -8.6875 -2.859375 -9.15625 -2.640625 C -9.632812 -2.429688 -10.09375 -2.148438 -10.53125 -1.796875 C -10.96875 -1.441406 -11.390625 -0.972656 -11.796875 -0.390625 Z M -11.796875 -0.390625 "/>
</g>
</g>
</defs>
<rect x="-72" y="-72" width="864" height="864" fill="rgb(100%, 100%, 100%)" fill-opacity="1"/>
<path fill="none" stroke-width="0.75" stroke-linecap="round" stroke-linejoin="round" stroke="rgb(0%, 0%, 0%)" stroke-opacity="1" stroke-miterlimit="10" d="M 84 625.699219 L 84 32.140625 "/>
<path fill="none" stroke-width="0.75" stroke-linecap="round" stroke-linejoin="round" stroke="rgb(0%, 0%, 0%)" stroke-opacity="1" stroke-miterlimit="10" d="M 84 625.699219 L 78.121094 625.699219 "/>
<path fill="none" stroke-width="0.75" stroke-linecap="round" stroke-linejoin="round" stroke="rgb(0%, 0%, 0%)" stroke-opacity="1" stroke-miterlimit="10" d="M 84 540.902344 L 78.121094 540.902344 "/>
<path fill="none" stroke-width="0.75" stroke-linecap="round" stroke-linejoin="round" stroke="rgb(0%, 0%, 0%)" stroke-opacity="1" stroke-miterlimit="10" d="M 84 456.109375 L 78.121094 456.109375 "/>
<path fill="none" stroke-width="0.75" stroke-linecap="round" stroke-linejoin="round" stroke="rgb(0%, 0%, 0%)" stroke-opacity="1" stroke-miterlimit="10" d="M 84 371.316406 L 78.121094 371.316406 "/>
<path fill="none" stroke-width="0.75" stroke-linecap="round" stroke-linejoin="round" stroke="rgb(0%, 0%, 0%)" stroke-opacity="1" stroke-miterlimit="10" d="M 84 286.523438 L 78.121094 286.523438 "/>
<path fill="none" stroke-width="0.75" stroke-linecap="round" stroke-linejoin="round" stroke="rgb(0%, 0%, 0%)" stroke-opacity="1" stroke-miterlimit="10" d="M 84 201.730469 L 78.121094 201.730469 "/>
<path fill="none" stroke-width="0.75" stroke-linecap="round" stroke-linejoin="round" stroke="rgb(0%, 0%, 0%)" stroke-opacity="1" stroke-miterlimit="10" d="M 84 116.9375 L 78.121094 116.9375 "/>
<path fill="none" stroke-width="0.75" stroke-linecap="round" stroke-linejoin="round" stroke="rgb(0%, 0%, 0%)" stroke-opacity="1" stroke-miterlimit="10" d="M 84 32.140625 L 78.121094 32.140625 "/>
<g fill="rgb(0%, 0%, 0%)" fill-opacity="1">
<use xlink:href="#glyph-0-0" x="50.398438" y="644.797852"/>
<use xlink:href="#glyph-0-0" x="57.398438" y="644.797852"/>
<use xlink:href="#glyph-0-1" x="64.398438" y="644.797852"/>
</g>
<g fill="rgb(0%, 0%, 0%)" fill-opacity="1">
<use xlink:href="#glyph-0-0" x="50.398438" y="560.000977"/>
<use xlink:href="#glyph-0-2" x="57.398438" y="560.000977"/>
<use xlink:href="#glyph-0-1" x="64.398438" y="560.000977"/>
</g>
<g fill="rgb(0%, 0%, 0%)" fill-opacity="1">
<use xlink:href="#glyph-0-3" x="50.398438" y="475.208008"/>
<use xlink:href="#glyph-0-1" x="57.398438" y="475.208008"/>
<use xlink:href="#glyph-0-1" x="64.398438" y="475.208008"/>
</g>
<g fill="rgb(0%, 0%, 0%)" fill-opacity="1">
<use xlink:href="#glyph-0-3" x="50.398438" y="390.415039"/>
<use xlink:href="#glyph-0-4" x="57.398438" y="390.415039"/>
<use xlink:href="#glyph-0-1" x="64.398438" y="390.415039"/>
</g>
<g fill="rgb(0%, 0%, 0%)" fill-opacity="1">
<use xlink:href="#glyph-0-3" x="50.398438" y="305.62207"/>
<use xlink:href="#glyph-0-5" x="57.398438" y="305.62207"/>
<use xlink:href="#glyph-0-1" x="64.398438" y="305.62207"/>
</g>
<g fill="rgb(0%, 0%, 0%)" fill-opacity="1">
<use xlink:href="#glyph-0-3" x="50.398438" y="220.829102"/>
<use xlink:href="#glyph-0-0" x="57.398438" y="220.829102"/>
<use xlink:href="#glyph-0-1" x="64.398438" y="220.829102"/>
</g>
<g fill="rgb(0%, 0%, 0%)" fill-opacity="1">
<use xlink:href="#glyph-0-3" x="50.398438" y="136.036133"/>
<use xlink:href="#glyph-0-2" x="57.398438" y="136.036133"/>
<use xlink:href="#glyph-0-1" x="64.398438" y="136.036133"/>
</g>
<g fill="rgb(0%, 0%, 0%)" fill-opacity="1">
<use xlink:href="#glyph-0-2" x="50.398438" y="51.239258"/>
<use xlink:href="#glyph-0-1" x="57.398438" y="51.239258"/>
<use xlink:href="#glyph-0-1" x="64.398438" y="51.239258"/>
</g>
<path fill="none" stroke-width="0.75" stroke-linecap="round" stroke-linejoin="round" stroke="rgb(0%, 0%, 0%)" stroke-opacity="1" stroke-miterlimit="10" d="M 84 649.441406 L 706.558594 649.441406 L 706.558594 8.398438 L 84 8.398438 Z M 84 649.441406 "/>
<g fill="rgb(0%, 0%, 0%)" fill-opacity="1">
<use xlink:href="#glyph-1-0" x="355.28125" y="706.15332"/>
<use xlink:href="#glyph-1-1" x="368.28125" y="706.15332"/>
<use xlink:href="#glyph-1-2" x="376.28125" y="706.15332"/>
<use xlink:href="#glyph-1-3" x="381.28125" y="706.15332"/>
<use xlink:href="#glyph-1-4" x="389.28125" y="706.15332"/>
<use xlink:href="#glyph-1-5" x="398.28125" y="706.15332"/>
<use xlink:href="#glyph-1-6" x="402.28125" y="706.15332"/>
<use xlink:href="#glyph-1-7" x="408.28125" y="706.15332"/>
<use xlink:href="#glyph-1-8" x="422.28125" y="706.15332"/>
<use xlink:href="#glyph-1-9" x="429.28125" y="706.15332"/>
</g>
<g fill="rgb(0%, 0%, 0%)" fill-opacity="1">
<use xlink:href="#glyph-2-0" x="36.555664" y="402.421875"/>
<use xlink:href="#glyph-2-1" x="36.555664" y="390.421875"/>
<use xlink:href="#glyph-2-2" x="36.555664" y="382.421875"/>
<use xlink:href="#glyph-2-3" x="36.555664" y="375.421875"/>
<use xlink:href="#glyph-2-4" x="36.555664" y="366.421875"/>
<use xlink:href="#glyph-2-5" x="36.555664" y="357.421875"/>
<use xlink:href="#glyph-2-2" x="36.555664" y="348.421875"/>
<use xlink:href="#glyph-2-1" x="36.555664" y="341.421875"/>
<use xlink:href="#glyph-2-6" x="36.555664" y="333.421875"/>
<use xlink:href="#glyph-2-7" x="36.555664" y="329.421875"/>
<use xlink:href="#glyph-2-8" x="36.555664" y="319.421875"/>
<use xlink:href="#glyph-2-9" x="36.555664" y="314.421875"/>
<use xlink:href="#glyph-2-1" x="36.555664" y="300.421875"/>
<use xlink:href="#glyph-2-6" x="36.555664" y="292.421875"/>
<use xlink:href="#glyph-2-10" x="36.555664" y="288.421875"/>
<use xlink:href="#glyph-2-9" x="36.555664" y="282.421875"/>
<use xlink:href="#glyph-2-2" x="36.555664" y="268.421875"/>
<use xlink:href="#glyph-2-11" x="36.555664" y="261.421875"/>
</g>
<path fill="none" stroke-width="0.75" stroke-linecap="round" stroke-linejoin="round" stroke="rgb(0%, 0%, 0%)" stroke-opacity="1" stroke-miterlimit="10" d="M 185.410156 649.441406 L 605.152344 649.441406 "/>
<path fill="none" stroke-width="0.75" stroke-linecap="round" stroke-linejoin="round" stroke="rgb(0%, 0%, 0%)" stroke-opacity="1" stroke-miterlimit="10" d="M 185.410156 649.441406 L 185.410156 655.320312 "/>
<path fill="none" stroke-width="0.75" stroke-linecap="round" stroke-linejoin="round" stroke="rgb(0%, 0%, 0%)" stroke-opacity="1" stroke-miterlimit="10" d="M 605.152344 649.441406 L 605.152344 655.320312 "/>
<g fill="rgb(0%, 0%, 0%)" fill-opacity="1">
<use xlink:href="#glyph-0-1" x="181.910156" y="674.579102"/>
</g>
<g fill="rgb(0%, 0%, 0%)" fill-opacity="1">
<use xlink:href="#glyph-0-3" x="594.652344" y="674.579102"/>
<use xlink:href="#glyph-0-6" x="601.652344" y="674.579102"/>
<use xlink:href="#glyph-0-1" x="608.652344" y="674.579102"/>
</g>
<path fill="none" stroke-width="1.05" stroke-linecap="round" stroke-linejoin="round" stroke="rgb(0%, 0%, 0%)" stroke-opacity="1" stroke-miterlimit="10" d="M 193.558594 487.835938 L 597 588.792969 "/>
<path fill="none" stroke-width="1.05" stroke-linecap="round" stroke-linejoin="round" stroke="rgb(0%, 0%, 0%)" stroke-opacity="1" stroke-miterlimit="10" d="M 185.410156 480.164062 L 190.289062 488.613281 L 180.53125 488.613281 Z M 185.410156 480.164062 "/>
<path fill="none" stroke-width="1.05" stroke-linecap="round" stroke-linejoin="round" stroke="rgb(0%, 0%, 0%)" stroke-opacity="1" stroke-miterlimit="10" d="M 605.152344 585.199219 L 610.027344 593.648438 L 600.273438 593.648438 Z M 605.152344 585.199219 "/>
<path fill="none" stroke-width="1.05" stroke-linecap="round" stroke-linejoin="round" stroke="rgb(0%, 0%, 0%)" stroke-opacity="1" stroke-miterlimit="10" d="M 193.414062 60.671875 L 597.144531 189.179688 "/>
<path fill="none" stroke-width="1.05" stroke-linecap="round" stroke-linejoin="round" stroke="rgb(0%, 0%, 0%)" stroke-opacity="1" stroke-miterlimit="10" d="M 189.03125 58.121094 C 189.03125 62.953125 181.785156 62.953125 181.785156 58.121094 C 181.785156 53.292969 189.03125 53.292969 189.03125 58.121094 "/>
<path fill="none" stroke-width="1.05" stroke-linecap="round" stroke-linejoin="round" stroke="rgb(0%, 0%, 0%)" stroke-opacity="1" stroke-miterlimit="10" d="M 608.773438 191.726562 C 608.773438 196.554688 601.527344 196.554688 601.527344 191.726562 C 601.527344 186.894531 608.773438 186.894531 608.773438 191.726562 "/>
<path fill="none" stroke-width="1.05" stroke-linecap="round" stroke-linejoin="round" stroke="rgb(0%, 0%, 0%)" stroke-opacity="1" stroke-miterlimit="10" d="M 193.511719 242.433594 L 597.046875 352.871094 "/>
<path fill="none" stroke-width="1.05" stroke-linecap="round" stroke-linejoin="round" stroke="rgb(0%, 0%, 0%)" stroke-opacity="1" stroke-miterlimit="10" d="M 181.785156 243.839844 L 189.03125 243.839844 L 189.03125 236.59375 L 181.785156 236.59375 Z M 181.785156 243.839844 "/>
<path fill="none" stroke-width="1.05" stroke-linecap="round" stroke-linejoin="round" stroke="rgb(0%, 0%, 0%)" stroke-opacity="1" stroke-miterlimit="10" d="M 601.527344 358.710938 L 608.773438 358.710938 L 608.773438 351.464844 L 601.527344 351.464844 Z M 601.527344 358.710938 "/>
<path fill="none" stroke-width="1.05" stroke-linecap="round" stroke-linejoin="round" stroke="rgb(0%, 0%, 0%)" stroke-opacity="1" stroke-miterlimit="10" d="M 193.511719 188 L 597.050781 298.582031 "/>
<path fill="none" stroke-width="1.05" stroke-linecap="round" stroke-linejoin="round" stroke="rgb(0%, 0%, 0%)" stroke-opacity="1" stroke-miterlimit="10" d="M 181.785156 189.402344 L 189.03125 182.160156 "/>
<path fill="none" stroke-width="1.05" stroke-linecap="round" stroke-linejoin="round" stroke="rgb(0%, 0%, 0%)" stroke-opacity="1" stroke-miterlimit="10" d="M 181.785156 182.160156 L 189.03125 189.402344 "/>
<path fill="none" stroke-width="1.05" stroke-linecap="round" stroke-linejoin="round" stroke="rgb(0%, 0%, 0%)" stroke-opacity="1" stroke-miterlimit="10" d="M 601.527344 304.425781 L 608.773438 297.179688 "/>
<path fill="none" stroke-width="1.05" stroke-linecap="round" stroke-linejoin="round" stroke="rgb(0%, 0%, 0%)" stroke-opacity="1" stroke-miterlimit="10" d="M 601.527344 297.179688 L 608.773438 304.425781 "/>
<path fill-rule="nonzero" fill="rgb(100%, 100%, 100%)" fill-opacity="1" stroke-width="0.75" stroke-linecap="round" stroke-linejoin="round" stroke="rgb(0%, 0%, 0%)" stroke-opacity="1" stroke-miterlimit="10" d="M 554.035156 21.222656 L 694.109375 21.222656 L 694.109375 109.421875 L 554.035156 109.421875 Z M 554.035156 21.222656 "/>
<path fill="none" stroke-width="0.75" stroke-linecap="round" stroke-linejoin="round" stroke="rgb(0%, 0%, 0%)" stroke-opacity="1" stroke-miterlimit="10" d="M 567.265625 33.226562 L 572.140625 41.675781 L 562.386719 41.675781 Z M 567.265625 33.226562 "/>
<path fill="none" stroke-width="0.75" stroke-linecap="round" stroke-linejoin="round" stroke="rgb(0%, 0%, 0%)" stroke-opacity="1" stroke-miterlimit="10" d="M 570.886719 56.5 C 570.886719 61.332031 563.640625 61.332031 563.640625 56.5 C 563.640625 51.671875 570.886719 51.671875 570.886719 56.5 "/>
<path fill="none" stroke-width="0.75" stroke-linecap="round" stroke-linejoin="round" stroke="rgb(0%, 0%, 0%)" stroke-opacity="1" stroke-miterlimit="10" d="M 563.640625 77.761719 L 570.886719 77.761719 L 570.886719 70.515625 L 563.640625 70.515625 Z M 563.640625 77.761719 "/>
<path fill="none" stroke-width="0.75" stroke-linecap="round" stroke-linejoin="round" stroke="rgb(0%, 0%, 0%)" stroke-opacity="1" stroke-miterlimit="10" d="M 563.640625 95.402344 L 570.886719 88.160156 "/>
<path fill="none" stroke-width="0.75" stroke-linecap="round" stroke-linejoin="round" stroke="rgb(0%, 0%, 0%)" stroke-opacity="1" stroke-miterlimit="10" d="M 563.640625 88.160156 L 570.886719 95.402344 "/>
<g fill="rgb(0%, 0%, 0%)" fill-opacity="1">
<use xlink:href="#glyph-0-7" x="580.492188" y="42.958008"/>
<use xlink:href="#glyph-0-8" x="591.492188" y="42.958008"/>
<use xlink:href="#glyph-0-9" x="598.492188" y="42.958008"/>
<use xlink:href="#glyph-0-10" x="605.492188" y="42.958008"/>
<use xlink:href="#glyph-0-11" x="612.492188" y="42.958008"/>
<use xlink:href="#glyph-0-8" x="616.492188" y="42.958008"/>
<use xlink:href="#glyph-0-12" x="623.492188" y="42.958008"/>
<use xlink:href="#glyph-0-13" x="630.492188" y="42.958008"/>
<use xlink:href="#glyph-0-14" x="634.492188" y="42.958008"/>
<use xlink:href="#glyph-0-15" x="643.492188" y="42.958008"/>
<use xlink:href="#glyph-0-11" x="650.492188" y="42.958008"/>
<use xlink:href="#glyph-0-16" x="654.492188" y="42.958008"/>
<use xlink:href="#glyph-0-11" x="658.492188" y="42.958008"/>
<use xlink:href="#glyph-0-17" x="662.492188" y="42.958008"/>
</g>
<g fill="rgb(0%, 0%, 0%)" fill-opacity="1">
<use xlink:href="#glyph-0-18" x="580.492188" y="60.598633"/>
<use xlink:href="#glyph-0-15" x="591.492188" y="60.598633"/>
<use xlink:href="#glyph-0-19" x="598.492188" y="60.598633"/>
<use xlink:href="#glyph-0-8" x="603.492188" y="60.598633"/>
<use xlink:href="#glyph-0-20" x="610.492188" y="60.598633"/>
<use xlink:href="#glyph-0-10" x="614.492188" y="60.598633"/>
<use xlink:href="#glyph-0-11" x="621.492188" y="60.598633"/>
<use xlink:href="#glyph-0-8" x="625.492188" y="60.598633"/>
<use xlink:href="#glyph-0-12" x="632.492188" y="60.598633"/>
</g>
<g fill="rgb(0%, 0%, 0%)" fill-opacity="1">
<use xlink:href="#glyph-0-21" x="580.492188" y="78.239258"/>
<use xlink:href="#glyph-0-22" x="591.492188" y="78.239258"/>
<use xlink:href="#glyph-0-22" x="598.492188" y="78.239258"/>
<use xlink:href="#glyph-0-12" x="605.492188" y="78.239258"/>
<use xlink:href="#glyph-0-13" x="612.492188" y="78.239258"/>
<use xlink:href="#glyph-0-23" x="615.492188" y="78.239258"/>
<use xlink:href="#glyph-0-20" x="625.492188" y="78.239258"/>
<use xlink:href="#glyph-0-11" x="629.492188" y="78.239258"/>
<use xlink:href="#glyph-0-8" x="633.492188" y="78.239258"/>
<use xlink:href="#glyph-0-19" x="640.492188" y="78.239258"/>
<use xlink:href="#glyph-0-15" x="645.492188" y="78.239258"/>
<use xlink:href="#glyph-0-10" x="652.492188" y="78.239258"/>
<use xlink:href="#glyph-0-11" x="659.492188" y="78.239258"/>
<use xlink:href="#glyph-0-16" x="663.492188" y="78.239258"/>
<use xlink:href="#glyph-0-24" x="667.492188" y="78.239258"/>
<use xlink:href="#glyph-0-8" x="674.492188" y="78.239258"/>
</g>
<g fill="rgb(0%, 0%, 0%)" fill-opacity="1">
<use xlink:href="#glyph-0-25" x="580.492188" y="95.879883"/>
<use xlink:href="#glyph-0-22" x="592.492188" y="95.879883"/>
<use xlink:href="#glyph-0-19" x="600.492188" y="95.879883"/>
<use xlink:href="#glyph-0-26" x="605.492188" y="95.879883"/>
<use xlink:href="#glyph-0-8" x="611.492188" y="95.879883"/>
<use xlink:href="#glyph-0-13" x="618.492188" y="95.879883"/>
<use xlink:href="#glyph-0-23" x="621.492188" y="95.879883"/>
<use xlink:href="#glyph-0-20" x="631.492188" y="95.879883"/>
<use xlink:href="#glyph-0-11" x="635.492188" y="95.879883"/>
<use xlink:href="#glyph-0-8" x="639.492188" y="95.879883"/>
<use xlink:href="#glyph-0-19" x="646.492188" y="95.879883"/>
<use xlink:href="#glyph-0-15" x="651.492188" y="95.879883"/>
<use xlink:href="#glyph-0-10" x="658.492188" y="95.879883"/>
<use xlink:href="#glyph-0-11" x="665.492188" y="95.879883"/>
<use xlink:href="#glyph-0-16" x="669.492188" y="95.879883"/>
<use xlink:href="#glyph-0-24" x="673.492188" y="95.879883"/>
<use xlink:href="#glyph-0-8" x="680.492188" y="95.879883"/>
</g>
</svg>
